<?xml version="1.0" standalone="no"?>
<!DOCTYPE svg PUBLIC "-//W3C//DTD SVG 20010904//EN"
 "http://www.w3.org/TR/2001/REC-SVG-20010904/DTD/svg10.dtd">
<svg version="1.0" xmlns="http://www.w3.org/2000/svg"
 width="512.000000pt" height="512.000000pt" viewBox="0 0 512.000000 512.000000"
 preserveAspectRatio="xMidYMid meet">

<g transform="translate(0.000000,512.000000) scale(0.100000,-0.100000)"
fill="#FFFFFF" stroke="none">
<path d="M1993 5096 l-28 -24 -3 -152 -3 -153 -31 37 c-40 49 -90 80 -171 105
-67 20 -226 41 -318 41 -48 0 -49 -1 -49 -29 0 -102 62 -278 122 -346 68 -78
178 -117 362 -131 l86 -7 0 -172 0 -172 -72 -7 c-542 -52 -1029 -409 -1248
-914 -142 -329 -164 -721 -60 -1057 37 -118 73 -202 121 -289 50 -88 89 -130
154 -164 43 -23 63 -27 135 -27 75 0 91 3 138 29 81 45 82 48 24 111 -275 301
-369 762 -236 1162 119 355 412 646 764 757 133 42 224 56 368 56 336 0 630
-125 860 -364 217 -226 332 -513 332 -827 0 -198 -41 -362 -141 -564 -71 -144
-88 -216 -71 -307 19 -101 54 -158 173 -283 l110 -113 -21 -34 c-31 -51 -27
-123 9 -179 37 -57 696 -712 738 -733 37 -18 99 -21 140 -5 36 14 308 283 328
325 21 44 19 107 -4 152 -25 48 -717 737 -754 751 -47 18 -118 13 -156 -10
l-34 -21 -104 104 -104 104 44 76 c80 140 145 333 174 513 23 148 13 423 -20
565 -127 533 -506 949 -1016 1117 -104 34 -301 73 -367 73 l-34 0 2 173 3 172
80 7 c252 22 353 73 420 213 33 68 74 220 75 274 l0 24 -121 -7 c-226 -13
-330 -47 -409 -133 l-50 -55 0 150 c0 83 -3 158 -6 167 -8 19 -55 45 -83 45
-11 0 -33 -11 -48 -24z m2027 -4021 l335 -335 -123 -122 -122 -123 -337 337
-338 338 120 120 c66 66 122 120 125 120 3 0 156 -151 340 -335z"/>
<path d="M2012 3490 c-46 -19 -52 -58 -52 -341 l0 -262 -41 47 c-75 85 -193
124 -405 133 l-131 6 9 -59 c34 -227 111 -354 246 -404 57 -22 218 -50 285
-50 l37 0 0 -267 0 -266 -30 41 c-66 91 -186 133 -422 148 l-118 7 0 -31 c0
-17 7 -62 15 -100 39 -190 120 -299 250 -340 77 -24 183 -41 258 -42 l47 0 0
-266 0 -266 -32 43 c-66 85 -192 128 -404 136 l-141 6 8 -59 c5 -33 20 -95 34
-139 61 -201 151 -270 380 -296 50 -6 105 -13 123 -15 l32 -5 0 -339 0 -340
-951 0 -951 0 -29 -29 c-38 -38 -38 -74 0 -112 l29 -29 1947 0 1947 0 29 29
c42 43 34 106 -18 130 -17 8 -287 11 -928 11 l-905 0 0 339 0 340 43 5 c23 3
74 8 112 12 154 14 272 72 329 163 42 66 96 246 96 317 0 20 -169 19 -286 -1
-122 -22 -195 -56 -250 -119 l-44 -51 2 265 3 265 90 7 c241 19 348 77 416
223 28 59 68 215 69 264 l0 24 -117 -7 c-234 -15 -338 -49 -418 -138 l-45 -50
0 264 0 265 83 7 c120 10 223 34 288 66 106 54 178 191 205 394 l7 49 -134 -6
c-221 -10 -350 -55 -413 -145 l-31 -44 -2 279 c-2 180 -7 286 -14 299 -11 22
-49 45 -72 43 -7 0 -22 -4 -35 -9z"/>
<path d="M4214 146 c-39 -33 -39 -89 0 -122 l27 -24 410 0 411 0 29 29 c38 38
38 74 0 112 l-29 29 -411 0 -410 0 -27 -24z"/>
</g>
</svg>
