<?xml version="1.0" standalone="no"?>
<!DOCTYPE svg PUBLIC "-//W3C//DTD SVG 20010904//EN"
 "http://www.w3.org/TR/2001/REC-SVG-20010904/DTD/svg10.dtd">
<svg version="1.0" xmlns="http://www.w3.org/2000/svg"
 width="512.000000pt" height="512.000000pt" viewBox="0 0 512.000000 512.000000"
 preserveAspectRatio="xMidYMid meet">

<g transform="translate(0.000000,512.000000) scale(0.100000,-0.100000)"
fill="#FFFFFF" stroke="none">
<path d="M4123 4599 c-57 -10 -80 -23 -250 -141 -165 -115 -210 -155 -238
-213 -26 -55 -32 -160 -11 -210 9 -21 13 -42 9 -45 -5 -4 -55 -39 -112 -79
l-104 -73 -516 92 c-556 99 -593 103 -682 63 -56 -26 -1279 -880 -1336 -933
-180 -169 -125 -470 105 -578 77 -36 201 -38 277 -4 28 12 194 123 370 246
l320 224 16 -48 c35 -100 110 -183 203 -226 61 -28 1144 -224 1236 -224 72 0
197 32 258 65 26 14 188 124 361 245 l313 219 37 -29 c75 -60 196 -78 278 -40
69 31 359 237 398 282 61 72 80 172 49 261 -15 46 -675 1010 -732 1070 -56 59
-163 92 -249 76z m94 -241 c23 -26 653 -931 672 -966 7 -13 9 -31 6 -41 -6
-20 -282 -217 -328 -235 -26 -10 -31 -8 -55 19 -56 62 -682 974 -682 992 0 11
10 29 23 40 53 48 302 213 322 213 12 0 31 -10 42 -22z m-223 -875 c119 -171
216 -315 215 -320 -1 -15 -632 -446 -683 -466 -36 -14 -73 -20 -126 -19 -105
1 -1108 183 -1152 209 -46 27 -72 76 -71 136 1 82 68 147 151 147 25 0 183
-25 353 -55 364 -65 389 -66 430 -26 56 56 32 156 -44 180 -72 23 -676 124
-742 124 -125 0 -82 28 -1119 -696 -64 -45 -167 -17 -196 53 -20 48 -8 117 26
150 40 37 1252 881 1284 893 20 8 151 -12 570 -87 316 -57 557 -95 574 -92 15
3 89 49 164 101 75 52 139 91 143 87 3 -4 104 -147 223 -319z"/>
<path d="M1928 2214 c-30 -16 -58 -61 -58 -94 0 -12 6 -33 14 -48 23 -42 129
-141 161 -150 83 -24 156 50 133 133 -9 32 -108 138 -150 161 -34 18 -65 17
-100 -2z"/>
<path d="M2718 1982 c-73 -73 -78 -81 -78 -121 0 -36 6 -49 34 -77 61 -61 115
-45 214 61 52 55 62 72 62 101 0 71 -41 113 -109 114 -42 0 -49 -4 -123 -78z"/>
<path d="M83 1633 c-32 -6 -72 -51 -79 -88 -7 -41 11 -81 49 -109 28 -21 37
-21 678 -24 l649 -3 5 -27 c49 -241 123 -394 267 -547 213 -228 517 -343 832
-314 444 41 817 383 897 822 l12 67 621 0 c342 0 638 3 659 7 55 9 97 53 97
104 0 22 -8 51 -17 66 -35 54 -27 53 -770 53 -441 0 -701 -4 -725 -10 -57 -16
-74 -49 -87 -166 -17 -162 -59 -277 -146 -399 -177 -250 -494 -372 -803 -309
-98 19 -258 96 -336 162 -164 136 -265 331 -285 549 -5 58 -15 102 -25 118
-37 56 -26 55 -778 54 -381 -1 -703 -4 -715 -6z"/>
<path d="M2182 1547 c-56 -32 -72 -110 -33 -165 11 -16 46 -53 77 -81 49 -45
61 -51 99 -51 78 0 133 73 106 142 -13 34 -74 103 -125 140 -42 30 -86 36
-124 15z"/>
</g>
</svg>
