<?xml version="1.0" standalone="no"?>
<!DOCTYPE svg PUBLIC "-//W3C//DTD SVG 20010904//EN"
 "http://www.w3.org/TR/2001/REC-SVG-20010904/DTD/svg10.dtd">
<svg version="1.0" xmlns="http://www.w3.org/2000/svg"
 width="200.000000pt" height="200.000000pt" viewBox="0 0 200.000000 200.000000"
 preserveAspectRatio="xMidYMid meet">

<g transform="translate(0.000000,200.000000) scale(0.100000,-0.100000)"
fill="#FFFFFF" stroke="none">
<path d="M843 1886 c-415 -79 -714 -416 -740 -832 l-6 -103 27 -12 c48 -22 60
-5 69 102 29 366 255 643 602 741 114 31 297 31 410 -1 288 -81 496 -288 577
-576 32 -113 32 -297 0 -410 -81 -287 -295 -500 -578 -576 -111 -30 -297 -30
-408 0 -93 25 -200 76 -276 131 l-55 40 82 0 c61 0 86 4 97 16 19 18 21 45 4
62 -17 17 -309 17 -326 0 -8 -8 -12 -58 -12 -159 0 -139 1 -149 21 -163 22
-15 48 -11 61 8 4 6 8 46 8 89 0 42 2 77 5 77 3 0 28 -18 56 -40 69 -54 216
-125 314 -152 115 -31 336 -30 450 1 317 86 560 329 646 646 18 65 22 107 22
225 0 118 -4 160 -22 225 -86 317 -333 564 -646 645 -103 27 -284 35 -382 16z"/>
<path d="M966 1548 c-14 -19 -16 -64 -16 -290 0 -255 1 -269 20 -288 19 -19
33 -20 201 -20 105 0 188 4 200 10 12 7 19 21 19 40 0 19 -7 33 -19 40 -11 5
-86 10 -170 10 l-151 0 0 238 c0 199 -3 241 -16 260 -19 28 -49 28 -68 0z"/>
</g>
</svg>
