<svg width="92" height="99" viewBox="0 0 92 99" xmlns="http://www.w3.org/2000/svg" xmlns:xlink="http://www.w3.org/1999/xlink">
    <defs>
        <path d="M.198 20.532c0 10.801 8.756 19.557 19.558 19.557 10.801 0 19.557-8.756 19.557-19.557C39.313 9.73 30.557.974 19.756.974 8.954.974.198 9.73.198 20.532z" id="a"/>
        <path d="M.198 20.532c0 10.801 8.756 19.557 19.558 19.557 10.801 0 19.557-8.756 19.557-19.557C39.313 9.73 30.557.974 19.756.974 8.954.974.198 9.73.198 20.532z" id="c"/>
        <path d="M.198 20.532c0 10.801 8.756 19.557 19.558 19.557 10.801 0 19.557-8.756 19.557-19.557C39.313 9.73 30.557.974 19.756.974 8.954.974.198 9.73.198 20.532z" id="e"/>
        <path d="M.198 20.532c0 10.801 8.756 19.557 19.558 19.557 10.801 0 19.557-8.756 19.557-19.557C39.313 9.73 30.557.974 19.756.974 8.954.974.198 9.73.198 20.532z" id="g"/>
        <path d="M.198 20.532c0 10.801 8.756 19.557 19.558 19.557 10.801 0 19.557-8.756 19.557-19.557C39.313 9.73 30.557.974 19.756.974 8.954.974.198 9.73.198 20.532z" id="i"/>
        <path d="M.198 20.532c0 10.801 8.756 19.557 19.558 19.557 10.801 0 19.557-8.756 19.557-19.557C39.313 9.73 30.557.974 19.756.974 8.954.974.198 9.73.198 20.532z" id="k"/>
        <path d="M.198 20.532c0 10.801 8.756 19.557 19.558 19.557 10.801 0 19.557-8.756 19.557-19.557C39.313 9.73 30.557.974 19.756.974 8.954.974.198 9.73.198 20.532z" id="m"/>
        <path d="M.198 20.532c0 10.801 8.756 19.557 19.558 19.557 10.801 0 19.557-8.756 19.557-19.557C39.313 9.73 30.557.974 19.756.974 8.954.974.198 9.73.198 20.532z" id="o"/>
        <path d="M.198 20.532c0 10.801 8.756 19.557 19.558 19.557 10.801 0 19.557-8.756 19.557-19.557C39.313 9.73 30.557.974 19.756.974 8.954.974.198 9.73.198 20.532z" id="q"/>
        <path d="M.198 20.532c0 10.801 8.756 19.557 19.558 19.557 10.801 0 19.557-8.756 19.557-19.557C39.313 9.73 30.557.974 19.756.974 8.954.974.198 9.73.198 20.532z" id="s"/>
        <path d="M.198 20.532c0 10.801 8.756 19.557 19.558 19.557 10.801 0 19.557-8.756 19.557-19.557C39.313 9.73 30.557.974 19.756.974 8.954.974.198 9.73.198 20.532z" id="u"/>
        <path d="M.198 20.532c0 10.801 8.756 19.557 19.558 19.557 10.801 0 19.557-8.756 19.557-19.557C39.313 9.73 30.557.974 19.756.974 8.954.974.198 9.73.198 20.532z" id="w"/>
        <path d="M.198 20.532c0 10.801 8.756 19.557 19.558 19.557 10.801 0 19.557-8.756 19.557-19.557C39.313 9.73 30.557.974 19.756.974 8.954.974.198 9.73.198 20.532" id="y"/>
        <path d="M.198 20.532c0 10.801 8.756 19.557 19.558 19.557 10.801 0 19.557-8.756 19.557-19.557C39.313 9.73 30.557.974 19.756.974 8.954.974.198 9.73.198 20.532" id="A"/>
        <path d="M.198 20.532c0 10.801 8.756 19.557 19.558 19.557 10.801 0 19.557-8.756 19.557-19.557C39.313 9.73 30.557.974 19.756.974 8.954.974.198 9.73.198 20.532" id="C"/>
        <path d="M.198 20.532c0 10.801 8.756 19.557 19.558 19.557 10.801 0 19.557-8.756 19.557-19.557C39.313 9.73 30.557.974 19.756.974 8.954.974.198 9.73.198 20.532" id="E"/>
        <path d="M.198 20.532c0 10.801 8.756 19.557 19.558 19.557 10.801 0 19.557-8.756 19.557-19.557C39.313 9.73 30.557.974 19.756.974 8.954.974.198 9.73.198 20.532" id="G"/>
        <path d="M.198 20.532c0 10.801 8.756 19.557 19.558 19.557 10.801 0 19.557-8.756 19.557-19.557C39.313 9.73 30.557.974 19.756.974 8.954.974.198 9.73.198 20.532" id="I"/>
        <path d="M.198 20.532c0 10.801 8.756 19.557 19.558 19.557 10.801 0 19.557-8.756 19.557-19.557C39.313 9.73 30.557.974 19.756.974 8.954.974.198 9.73.198 20.532" id="K"/>
        <path d="M.198 20.532c0 10.801 8.756 19.557 19.558 19.557 10.801 0 19.557-8.756 19.557-19.557C39.313 9.73 30.557.974 19.756.974 8.954.974.198 9.73.198 20.532" id="M"/>
        <path d="M.198 20.532c0 10.801 8.756 19.557 19.558 19.557 10.801 0 19.557-8.756 19.557-19.557C39.313 9.73 30.557.974 19.756.974 8.954.974.198 9.73.198 20.532" id="O"/>
        <path d="M.198 20.532c0 10.801 8.756 19.557 19.558 19.557 10.801 0 19.557-8.756 19.557-19.557C39.313 9.73 30.557.974 19.756.974 8.954.974.198 9.73.198 20.532" id="Q"/>
        <path d="M.198 20.532c0 10.801 8.756 19.557 19.558 19.557 10.801 0 19.557-8.756 19.557-19.557C39.313 9.73 30.557.974 19.756.974 8.954.974.198 9.73.198 20.532" id="S"/>
        <path d="M.198 20.532c0 10.801 8.756 19.557 19.558 19.557 10.801 0 19.557-8.756 19.557-19.557C39.313 9.73 30.557.974 19.756.974 8.954.974.198 9.73.198 20.532" id="U"/>
        <path d="M.5 19.647c0 10.801 8.756 19.558 19.557 19.558 10.802 0 19.558-8.757 19.558-19.558C39.615 8.845 30.859.09 20.057.09 9.256.09.5 8.845.5 19.647z" id="W"/>
        <path d="M.5 19.647c0 10.801 8.756 19.558 19.557 19.558 10.802 0 19.558-8.757 19.558-19.558C39.615 8.845 30.859.09 20.057.09 9.256.09.5 8.845.5 19.647z" id="Y"/>
        <path d="M.5 19.647c0 10.801 8.756 19.558 19.557 19.558 10.802 0 19.558-8.757 19.558-19.558C39.615 8.845 30.859.09 20.057.09 9.256.09.5 8.845.5 19.647z" id="aa"/>
        <path d="M.5 19.647c0 10.801 8.756 19.558 19.557 19.558 10.802 0 19.558-8.757 19.558-19.558C39.615 8.845 30.859.09 20.057.09 9.256.09.5 8.845.5 19.647z" id="ac"/>
        <path d="M.5 19.647c0 10.801 8.756 19.558 19.557 19.558 10.802 0 19.558-8.757 19.558-19.558C39.615 8.845 30.859.09 20.057.09 9.256.09.5 8.845.5 19.647z" id="ae"/>
        <path d="M.5 19.647c0 10.801 8.756 19.558 19.557 19.558 10.802 0 19.558-8.757 19.558-19.558C39.615 8.845 30.859.09 20.057.09 9.256.09.5 8.845.5 19.647z" id="ag"/>
        <path d="M.5 19.647c0 10.801 8.756 19.558 19.557 19.558 10.802 0 19.558-8.757 19.558-19.558C39.615 8.845 30.859.09 20.057.09 9.256.09.5 8.845.5 19.647z" id="ai"/>
        <path d="M.5 19.647c0 10.801 8.756 19.558 19.557 19.558 10.802 0 19.558-8.757 19.558-19.558C39.615 8.845 30.859.09 20.057.09 9.256.09.5 8.845.5 19.647z" id="ak"/>
        <path d="M.5 19.647c0 10.801 8.756 19.558 19.557 19.558 10.802 0 19.558-8.757 19.558-19.558C39.615 8.845 30.859.09 20.057.09 9.256.09.5 8.845.5 19.647z" id="am"/>
        <path d="M.5 19.647c0 10.801 8.756 19.558 19.557 19.558 10.802 0 19.558-8.757 19.558-19.558C39.615 8.845 30.859.09 20.057.09 9.256.09.5 8.845.5 19.647z" id="ao"/>
        <path d="M.5 19.647c0 10.801 8.756 19.558 19.557 19.558 10.802 0 19.558-8.757 19.558-19.558C39.615 8.845 30.859.09 20.057.09 9.256.09.5 8.845.5 19.647z" id="aq"/>
        <path d="M.5 19.647c0 10.801 8.756 19.558 19.557 19.558 10.802 0 19.558-8.757 19.558-19.558C39.615 8.845 30.859.09 20.057.09 9.256.09.5 8.845.5 19.647z" id="as"/>
        <path d="M.5 19.647c0 10.801 8.756 19.558 19.557 19.558 10.802 0 19.558-8.757 19.558-19.558C39.615 8.845 30.859.09 20.057.09 9.256.09.5 8.845.5 19.647z" id="au"/>
        <path d="M.5 19.647c0 10.801 8.756 19.558 19.557 19.558 10.802 0 19.558-8.757 19.558-19.558C39.615 8.845 30.859.09 20.057.09 9.256.09.5 8.845.5 19.647z" id="aw"/>
        <path d="M.5 19.647c0 10.801 8.756 19.558 19.557 19.558 10.802 0 19.558-8.757 19.558-19.558C39.615 8.845 30.859.09 20.057.09 9.256.09.5 8.845.5 19.647" id="ay"/>
        <path d="M.5 19.647c0 10.801 8.756 19.558 19.557 19.558 10.802 0 19.558-8.757 19.558-19.558C39.615 8.845 30.859.09 20.057.09 9.256.09.5 8.845.5 19.647" id="aA"/>
        <path d="M.5 19.647c0 10.801 8.756 19.558 19.557 19.558 10.802 0 19.558-8.757 19.558-19.558C39.615 8.845 30.859.09 20.057.09 9.256.09.5 8.845.5 19.647" id="aC"/>
        <path d="M.5 19.647c0 10.801 8.756 19.558 19.557 19.558 10.802 0 19.558-8.757 19.558-19.558C39.615 8.845 30.859.09 20.057.09 9.256.09.5 8.845.5 19.647" id="aE"/>
        <path d="M.5 19.647c0 10.801 8.756 19.558 19.557 19.558 10.802 0 19.558-8.757 19.558-19.558C39.615 8.845 30.859.09 20.057.09 9.256.09.5 8.845.5 19.647" id="aG"/>
        <path d="M.5 19.647c0 10.801 8.756 19.558 19.557 19.558 10.802 0 19.558-8.757 19.558-19.558C39.615 8.845 30.859.09 20.057.09 9.256.09.5 8.845.5 19.647" id="aI"/>
        <path d="M.5 19.647c0 10.801 8.756 19.558 19.557 19.558 10.802 0 19.558-8.757 19.558-19.558C39.615 8.845 30.859.09 20.057.09 9.256.09.5 8.845.5 19.647" id="aK"/>
        <path d="M.5 19.647c0 10.801 8.756 19.558 19.557 19.558 10.802 0 19.558-8.757 19.558-19.558C39.615 8.845 30.859.09 20.057.09 9.256.09.5 8.845.5 19.647" id="aM"/>
        <path d="M.5 19.647c0 10.801 8.756 19.558 19.557 19.558 10.802 0 19.558-8.757 19.558-19.558C39.615 8.845 30.859.09 20.057.09 9.256.09.5 8.845.5 19.647" id="aO"/>
        <path d="M.5 19.647c0 10.801 8.756 19.558 19.557 19.558 10.802 0 19.558-8.757 19.558-19.558C39.615 8.845 30.859.09 20.057.09 9.256.09.5 8.845.5 19.647" id="aQ"/>
        <path d="M.5 19.647c0 10.801 8.756 19.558 19.557 19.558 10.802 0 19.558-8.757 19.558-19.558C39.615 8.845 30.859.09 20.057.09 9.256.09.5 8.845.5 19.647" id="aS"/>
        <path d="M.5 19.647c0 10.801 8.756 19.558 19.557 19.558 10.802 0 19.558-8.757 19.558-19.558C39.615 8.845 30.859.09 20.057.09 9.256.09.5 8.845.5 19.647" id="aU"/>
        <path d="M.5 19.647c0 10.801 8.756 19.558 19.557 19.558 10.802 0 19.558-8.757 19.558-19.558C39.615 8.845 30.859.09 20.057.09 9.256.09.5 8.845.5 19.647" id="aW"/>
        <path d="M.5 19.647c0 10.801 8.756 19.558 19.557 19.558 10.802 0 19.558-8.757 19.558-19.558C39.615 8.845 30.859.09 20.057.09 9.256.09.5 8.845.5 19.647" id="aY"/>
    </defs>
    <g fill="none" fill-rule="evenodd">
        <path d="M48.456 50.38c-1.486-.858-3.916-.858-5.4 0L4.172 72.826c-1.485.858-1.477 2.247.017 3.09L43.04 97.78c1.493.841 3.938.841 5.433 0L87.32 75.916c1.495-.842 1.503-2.23.018-3.089L48.456 50.38z" fill="#00A4BF" opacity=".2"/>
        <path d="M65.313 62.943c0 10.8-8.756 19.558-19.557 19.558-10.802 0-19.558-8.757-19.558-19.558 0-10.802 8.756-19.558 19.558-19.558 10.8 0 19.557 8.756 19.557 19.558z" stroke="#33475C" stroke-width="5" stroke-linecap="round" stroke-linejoin="round"/>
        <g transform="translate(26 42.41)">
            <mask id="b" fill="#fff">
                <use xlink:href="#a"/>
            </mask>
            <path d="M32.893 43.562c-.05-.265-.096-.532-.117-.801-.13-1.684-.298-3.366-.566-5.036-.15-.938-.423-1.844-.797-2.716-.253-.588-.597-1.112-1.169-1.448-.14-.082-.26-.148-.426-.022-1.47 1.118-3.238 1.418-4.977 1.79-1.214.26-2.447.387-3.683.492-.79.072-4.092.02-4.092.02-1.575-.091-3.149-.19-4.707-.453-1.25-.21-2.457-.562-3.612-1.09-.564-.255-.896-.217-1.23.266-.945 1.362-1.765 2.786-1.8 4.514 0 0-.024.895-.036 1.757v.008c-.007.517-.009 1.02 0 1.313v.437c0 .068.005.136.003.203-.003.078-.004.162-.018.24.91.71 4.224 2.695 12.947 2.72 8.72.028 13.088-1.496 14.376-2.044-.049-.035-.084-.086-.096-.15z" stroke="#33475C" stroke-width="5" stroke-linecap="round" stroke-linejoin="round" mask="url(#b)"/>
        </g>
        <g transform="translate(26 42.41)">
            <mask id="d" fill="#fff">
                <use xlink:href="#c"/>
            </mask>
            <path d="M27.768 33.77c-1.917.59-3.87 1.014-5.863 1.225l-.006.007c-1.614.277-5.577.07-5.684.064h-.006c-.122-.005-.244-.013-.365-.023-1.996-.165-3.99-.34-5.885-1.07-.168-.064-.337-.126-.503-.194-.06-.026-.116-.067-.202-.117.071-.224.293-.25.451-.336.905-.5 1.821-.98 2.724-1.484.826-.462 1.63-.965 2.277-1.667.73-.77.748-1.17.748-1.17.032-.714.027-1.427-.122-2.185l-.072-.351c.236.14.473.28.716.415.56.31 1.146.544 1.803.45 1.763-.252 3.227-1.088 4.47-2.335.158-.16.25-.384.373-.58l-.182-.167c-.226.165-.462.318-.674.498-1.023.873-2.125 1.579-3.46 1.896-.73.174-1.377.064-2.014-.29-.93-.52-1.769-1.163-2.548-1.884-1.097-1.014-1.758-2.266-2.025-3.734-.415-2.287-.32-4.575-.014-6.864.196-1.472.665-2.85 1.464-4.104.44-.688.947-1.322 1.697-1.703.551-.28 1.034-.204 1.481.218.901.849 1.811 1.692 2.694 2.56.497.489.967 1.009 1.41 1.547.232.28.38.634.593 1.006-1.465-.122-2.029.108-2.097.829.268-.07.527-.14.786-.206.923-.237 1.856.17 2.242 1.032.533 1.19 1.025 2.399 1.545 3.595.062.143.187.258.388.525.08-.338.111-.501.156-.66.087-.306.473-.612.747-.574.338.048.517.302.555.6.04.307.021.632-.036.937-.134.707-.505 1.298-1.005 1.805-.478.484-.724 1.05-.85 1.654h-.002l-.003.015c-.039.192-.068.388-.087.588-.03.217-.062.475-.09.736l-.045.609c-.065.727-.126 1.325-.173 1.926-.05.628-.102 1.262-.013 1.885 0 0 .317.953.691 1.169 1.706.96 3.432 1.885 5.104 2.903.128.077.3.117.347.335-.427.32-.928.513-1.436.669z" stroke="#33475C" stroke-width="5" stroke-linecap="round" stroke-linejoin="round" mask="url(#d)"/>
        </g>
        <g transform="translate(26 42.41)">
            <mask id="f" fill="#fff">
                <use xlink:href="#e"/>
            </mask>
            <path d="M29.9 12.113c-.23-.934-.487-1.755-.787-2.51-.171-.428-.47-.805-.757-1.17l-.073-.091c-.201-.256-.5-.538-1.028-.452-.042.007-.077.035-.094.074-.017.04-.012.084.012.119 1.089 1.577 1.719 3.298 1.926 5.263.004.04.028.077.063.095.018.01.039.016.06.016.019 0 .038-.004.055-.013.563-.277.773-.726.624-1.331z" stroke="#33475C" stroke-width="5" stroke-linecap="round" stroke-linejoin="round" mask="url(#f)"/>
        </g>
        <g transform="translate(26 42.41)">
            <mask id="h" fill="#fff">
                <use xlink:href="#g"/>
            </mask>
            <path d="M29.472 7.099c-.325-.38-.746-.74-1.29-1.101-.572-.381-1.242-.254-1.63.309-.121.177-.215.458-.16.653.088.304.368.486.696.451.773-.083 1.293.366 1.699.814.178.196.325.417.434.588.57.894.827 1.883 1.037 3.091.178 1.026-.145 1.691-.988 2.033-.02.008-.033.025-.037.046-.123.655-.073 1.157.164 1.626.188.37.379.559.603.596.025.004.052.006.078.006.198 0 .417-.119.667-.363.575-.562.89-1.265.936-2.087.14-2.54-.602-4.781-2.21-6.662z" stroke="#33475C" stroke-width="5" stroke-linecap="round" stroke-linejoin="round" mask="url(#h)"/>
        </g>
        <g transform="translate(26 42.41)">
            <mask id="j" fill="#fff">
                <use xlink:href="#i"/>
            </mask>
            <path d="M20.252 4.516c-.562-.07-1.036-.022-1.49.148-.462.174-.944.295-1.354.391-.838.196-1.69.386-2.517.568l-.909.203c-.848.189-1.516.649-2.04 1.406-1.023 1.473-1.728 3.184-2.287 5.548-.253 1.07-.34 2.218-.266 3.51.082 1.437.83 2.579 1.525 3.536.014.019.038.03.06.025.024-.004.043-.021.05-.043.041-.138.033-.255.024-.369l-.062.003.062-.005c-.179-2.479-.017-4.734.497-6.897.425-1.788 1.176-3.206 2.296-4.335.455-.459.983-.741 1.662-.887.453-.098.754-.013 1.076.305.391.389.783.776 1.176 1.163.734.723 1.493 1.471 2.231 2.214.303.305.594.65.863 1.026 1.077 1.498 1.997 3.272 2.813 5.426.036.095.077.188.122.29.022.048.044.099.067.154.007.016.021.028.038.034.017.006.036.003.051-.006l.263-.157c.345-.206.692-.258.976-.147.272.106.471.351.577.709.097.327.116.727.054 1.1-.06.358-.17.711-.289 1.085-.053.168-.107.341-.159.521-.007.025.002.051.023.067.011.008.024.012.037.012.012 0 .023-.003.034-.01 1.402-.913 2.405-2.312 2.825-3.94.303-1.175.406-2.41.317-3.774-.294-4.503-3.882-8.318-8.346-8.874z" stroke="#33475C" stroke-width="5" stroke-linecap="round" stroke-linejoin="round" mask="url(#j)"/>
        </g>
        <g transform="translate(26 42.41)">
            <mask id="l" fill="#fff">
                <use xlink:href="#k"/>
            </mask>
            <path d="M17.413 20.84c-.31.32-.675.444-1.082.404-.403-.04-.64-.37-.61-.832.024-.382.127-.76.127-1.14.002-1.01 0-2.025-.069-3.032-.047-.69-.354-1.295-.909-1.753-.637-.528-1.338-.599-2.067-.189-.189.106-.38.21-.677.373.133-.615.475-.872.909-1.013.707-.229 1.381-.143 1.982.325.627.488 1.049 1.113 1.177 1.908.198 1.23.198 2.466.062 3.703-.027.246-.075.493-.073.74 0 .364.136.466.506.458.226-.005.462-.22.724.047z" stroke="#33475C" stroke-width="5" stroke-linecap="round" stroke-linejoin="round" mask="url(#l)"/>
        </g>
        <g transform="translate(26 42.41)">
            <mask id="n" fill="#fff">
                <use xlink:href="#m"/>
            </mask>
            <path d="M19.298 22.36c-1.09 1.398-3.958 1.362-4.607-.074.533.2.998.45 1.492.544.496.094 1.031.1 1.53.023.515-.08 1.007-.305 1.585-.492z" stroke="#33475C" stroke-width="5" stroke-linecap="round" stroke-linejoin="round" mask="url(#n)"/>
        </g>
        <g transform="translate(26 42.41)">
            <mask id="p" fill="#fff">
                <use xlink:href="#o"/>
            </mask>
            <path d="M26.098 41.02c.309.2.44.452.457.759.053.987.119 1.975.047 2.965-.015.199-.049.406-.127.587-.065.153-.237.153-.315.007-.08-.154-.134-.34-.14-.513-.032-.902-.192-1.787-.297-2.68-.05-.416-.01-.808.375-1.125z" stroke="#33475C" stroke-width="5" stroke-linecap="round" stroke-linejoin="round" mask="url(#p)"/>
        </g>
        <g transform="translate(26 42.41)">
            <mask id="r" fill="#fff">
                <use xlink:href="#q"/>
            </mask>
            <path d="M8.71 44.773c-.209-.026-.217-.204-.255-.347-.245-.921-.309-1.862-.315-2.81 0-.068-.005-.14.014-.201.08-.251.113-.621.415-.616.272.005.3.37.303.6.018 1.01.141 2.023-.012 3.033-.019.123.013.276-.15.34z" stroke="#33475C" stroke-width="5" stroke-linecap="round" stroke-linejoin="round" mask="url(#r)"/>
        </g>
        <g transform="translate(26 42.41)">
            <mask id="t" fill="#fff">
                <use xlink:href="#s"/>
            </mask>
            <path d="M27.768 33.77c-1.917.59-3.87 1.014-5.863 1.225l-.006.007c-1.614.277-5.577.07-5.684.064h-.006c-.122-.005-.244-.013-.365-.023-1.996-.165-3.99-.34-5.885-1.07-.168-.064-.337-.126-.503-.194-.06-.026-.116-.067-.202-.117.071-.224.293-.25.451-.336.905-.5 1.821-.98 2.724-1.484.826-.462 1.63-.965 2.277-1.667.73-.77.748-1.17.748-1.17.032-.714.027-1.427-.122-2.185l-.072-.351c.236.14.473.28.716.415.56.31 1.146.544 1.803.45 1.763-.252 3.227-1.088 4.47-2.335.158-.16.25-.384.373-.58l-.182-.167c-.226.165-.462.318-.674.498-1.023.873-2.125 1.579-3.46 1.896-.73.174-1.377.064-2.014-.29-.93-.52-1.769-1.163-2.548-1.884-1.097-1.014-1.758-2.266-2.025-3.734-.415-2.287-.32-4.575-.014-6.864.196-1.472.665-2.85 1.464-4.104.44-.688.947-1.322 1.697-1.703.551-.28 1.034-.204 1.481.218.901.849 1.811 1.692 2.694 2.56.497.489.967 1.009 1.41 1.547.232.28.38.634.593 1.006-1.465-.122-2.029.108-2.097.829.268-.07.527-.14.786-.206.923-.237 1.856.17 2.242 1.032.533 1.19 1.025 2.399 1.545 3.595.062.143.187.258.388.525.08-.338.111-.501.156-.66.087-.306.473-.612.747-.574.338.048.517.302.555.6.04.307.021.632-.036.937-.134.707-.505 1.298-1.005 1.805-.478.484-.724 1.05-.85 1.654h-.002l-.003.015c-.039.192-.068.388-.087.588-.03.217-.062.475-.09.736l-.045.609c-.065.727-.126 1.325-.173 1.926-.05.628-.102 1.262-.013 1.885 0 0 .317.953.691 1.169 1.706.96 3.432 1.885 5.104 2.903.128.077.3.117.347.335-.427.32-.928.513-1.436.669zM10.986 19.442c.01.11.017.22-.022.348-.766-1.056-1.435-2.148-1.513-3.503-.067-1.177-.006-2.347.265-3.494.463-1.96 1.112-3.847 2.276-5.525.501-.722 1.15-1.191 2.004-1.382 1.142-.255 2.286-.504 3.426-.77.46-.108.92-.228 1.36-.394.482-.181.964-.207 1.462-.144 4.448.553 8 4.33 8.292 8.816.083 1.268.002 2.522-.315 3.755-.414 1.606-1.407 2.997-2.799 3.903.168-.584.361-1.09.45-1.612.06-.365.048-.775-.057-1.13-.236-.798-.926-1.024-1.644-.597l-.263.159c-.07-.166-.135-.302-.188-.442-.729-1.923-1.617-3.765-2.82-5.44-.262-.365-.553-.715-.87-1.032-1.127-1.135-2.272-2.252-3.408-3.378-.32-.318-.638-.43-1.132-.323-.674.146-1.223.43-1.693.905-1.21 1.22-1.922 2.722-2.313 4.365-.54 2.272-.667 4.586-.498 6.915zm15.617-13.1c.363-.528.984-.665 1.545-.292.463.308.916.669 1.276 1.089 1.625 1.902 2.333 4.125 2.194 6.618-.044.797-.348 1.49-.917 2.046-.545.532-.91.446-1.249-.222-.247-.488-.272-.988-.159-1.586.971-.394 1.186-1.176 1.025-2.102-.189-1.088-.44-2.163-1.046-3.113-.132-.208-.275-.413-.44-.596-.466-.516-.995-.915-1.75-.835-.315.033-.556-.144-.63-.406-.05-.175.038-.437.151-.601zm.671 1.67c.454-.073.713.154.911.406.305.386.634.783.812 1.23.321.809.574 1.649.783 2.494.106.429.045.894-.559 1.19-.208-1.977-.836-3.711-1.947-5.32zm6.153 34.968c-.104-1.868-.255-3.734-.588-5.576-.232-1.286-.56-2.567-1.362-3.64-.355-.543-.9-.888-.9-.888-.845-.474-1.64-.893-2.408-1.36-1.176-.714-2.399-1.342-3.634-1.941-.704-.342-.988-.833-.967-1.604.033-1.195.124-2.383.27-3.57l.114-.687c.018-.122.036-.244.052-.367.043-.34.206-.571.49-.762.522-.352 1.042-.712 1.534-1.106 1.47-1.176 2.498-2.645 2.922-4.503.034-.147.092-.29.14-.44.943.496 1.593.362 2.263-.46.423-.516.67-1.115.806-1.765.188-.897.13-1.795-.005-2.69-.289-1.922-1.047-3.633-2.396-5.045-.383-.403-.84-.762-1.322-1.035-.866-.492-1.656-.29-2.268.488-.08.102-.155.21-.248.335-.104-.072-.18-.114-.244-.17-1.486-1.34-3.242-2.092-5.206-2.384-.264-.04-.544-.06-.804-.015-.73.126-1.46.269-2.18.447-1.093.27-2.164.633-3.266.854-1.61.323-2.727 1.215-3.426 2.675-.106.224-.239.437-.319.67-.517 1.512-1.097 3.008-1.509 4.547-.43 1.605-.459 3.25.026 4.874.326 1.09 1.026 1.939 1.732 2.793.225.273.493.559.587.885.452 1.57 1.32 2.85 2.572 3.88l.516.433.162.625c.142.66.306 1.314.315 1.998.006.413-.107.754-.414 1.025-.286.254-.559.53-.873.746-1.619 1.106-3.383 1.96-5.054 2.927 0 0-1.457.815-1.812 1.336-.148.243-.296.488-.439.734-.455.78-.877 1.579-1.058 2.474-.283 1.399-.376 2.813-.29 4.237.017.292.063.584.124.869.045.209.068.503.375.463.25-.033.241-.288.25-.491.001-.067-.004-.135-.004-.203v-.437c-.009-.292-.007-.796 0-1.313v-.008c.012-.862.036-1.757.036-1.757.035-1.728.855-3.152 1.8-4.514.334-.483.666-.521 1.23-.265 1.155.527 2.361.879 3.612 1.089 1.558.263 3.132.362 4.707.454 0 0 3.301.05 4.092-.021 1.236-.105 2.47-.231 3.683-.491 1.74-.373 3.507-.673 4.977-1.791.165-.126.286-.06.426.022.572.336.916.86 1.17 1.448.373.872.646 1.778.796 2.716.268 1.67.435 3.352.566 5.036.021.269.067.536.117.8.022.119.118.196.241.2.16.008.253-.1.272-.242.025-.178.031-.36.021-.54z" stroke="#33475C" stroke-width="5" stroke-linecap="round" stroke-linejoin="round" mask="url(#t)"/>
        </g>
        <g transform="translate(26 42.41)">
            <mask id="v" fill="#fff">
                <use xlink:href="#u"/>
            </mask>
            <path d="M14.845 15.682c-.03-.055-.064-.108-.102-.159-.26-.352-.582-.34-.934-.062-.386.307-.524 1.002-.306 1.545.251.627.94.787 1.333.234.11-.154.164-.278.175-.733.011-.452-.163-.819-.166-.825z" stroke="#33475C" stroke-width="5" stroke-linecap="round" stroke-linejoin="round" mask="url(#v)"/>
        </g>
        <g transform="translate(26 42.41)">
            <mask id="x" fill="#fff">
                <use xlink:href="#w"/>
            </mask>
            <path d="M20.813 15.559c-.03-.056-.064-.109-.102-.159-.26-.353-.583-.342-.934-.063-.386.307-.525 1.002-.307 1.545.252.627.94.787 1.333.234.11-.154.165-.277.176-.733.011-.452-.164-.819-.166-.824z" stroke="#33475C" stroke-width="5" stroke-linecap="round" stroke-linejoin="round" mask="url(#x)"/>
        </g>
        <g>
            <path d="M65.313 62.943c0 10.8-8.756 19.558-19.557 19.558-10.802 0-19.558-8.757-19.558-19.558 0-10.802 8.756-19.558 19.558-19.558 10.8 0 19.557 8.756 19.557 19.558z" stroke="#33475C" stroke-width="5" stroke-linecap="round" stroke-linejoin="round"/>
            <path d="M65.313 62.943c0 10.8-8.756 19.558-19.557 19.558-10.802 0-19.558-8.757-19.558-19.558 0-10.802 8.756-19.558 19.558-19.558 10.8 0 19.557 8.756 19.557 19.558" fill="#B4BAEA"/>
        </g>
        <g>
            <g transform="translate(26 42.41)">
                <mask id="z" fill="#fff">
                    <use xlink:href="#y"/>
                </mask>
                <path d="M32.893 43.562c-.05-.265-.096-.532-.117-.801-.13-1.684-.298-3.366-.566-5.036-.15-.938-.423-1.844-.797-2.716-.253-.588-.597-1.112-1.169-1.448-.14-.082-.26-.148-.426-.022-1.47 1.118-3.238 1.418-4.977 1.79-1.214.26-2.447.387-3.683.492-.79.072-4.092.02-4.092.02-1.575-.091-3.149-.19-4.707-.453-1.25-.21-2.457-.562-3.612-1.09-.564-.255-.896-.217-1.23.266-.945 1.362-1.765 2.786-1.8 4.514 0 0-.024.895-.036 1.757v.008c-.007.517-.009 1.02 0 1.313v.437c0 .068.005.136.003.203-.003.078-.004.162-.018.24.91.71 4.224 2.695 12.947 2.72 8.72.028 13.088-1.496 14.376-2.044-.049-.035-.084-.086-.096-.15" fill="#00A4BF" mask="url(#z)"/>
            </g>
            <g transform="translate(26 42.41)">
                <mask id="B" fill="#fff">
                    <use xlink:href="#A"/>
                </mask>
                <path d="M27.768 33.77c-1.917.59-3.87 1.014-5.863 1.225l-.006.007c-1.614.277-5.577.07-5.684.064h-.006c-.122-.005-.244-.013-.365-.023-1.996-.165-3.99-.34-5.885-1.07-.168-.064-.337-.126-.503-.194-.06-.026-.116-.067-.202-.117.071-.224.293-.25.451-.336.905-.5 1.821-.98 2.724-1.484.826-.462 1.63-.965 2.277-1.667.73-.77.748-1.17.748-1.17.032-.714.027-1.427-.122-2.185l-.072-.351c.236.14.473.28.716.415.56.31 1.146.544 1.803.45 1.763-.252 3.227-1.088 4.47-2.335.158-.16.25-.384.373-.58l-.182-.167c-.226.165-.462.318-.674.498-1.023.873-2.125 1.579-3.46 1.896-.73.174-1.377.064-2.014-.29-.93-.52-1.769-1.163-2.548-1.884-1.097-1.014-1.758-2.266-2.025-3.734-.415-2.287-.32-4.575-.014-6.864.196-1.472.665-2.85 1.464-4.104.44-.688.947-1.322 1.697-1.703.551-.28 1.034-.204 1.481.218.901.849 1.811 1.692 2.694 2.56.497.489.967 1.009 1.41 1.547.232.28.38.634.593 1.006-1.465-.122-2.029.108-2.097.829.268-.07.527-.14.786-.206.923-.237 1.856.17 2.242 1.032.533 1.19 1.025 2.399 1.545 3.595.062.143.187.258.388.525.08-.338.111-.501.156-.66.087-.306.473-.612.747-.574.338.048.517.302.555.6.04.307.021.632-.036.937-.134.707-.505 1.298-1.005 1.805-.478.484-.724 1.05-.85 1.654h-.002l-.003.015c-.039.192-.068.388-.087.588-.03.217-.062.475-.09.736l-.045.609c-.065.727-.126 1.325-.173 1.926-.05.628-.102 1.262-.013 1.885 0 0 .317.953.691 1.169 1.706.96 3.432 1.885 5.104 2.903.128.077.3.117.347.335-.427.32-.928.513-1.436.669" fill="#FFE3DC" mask="url(#B)"/>
            </g>
            <g transform="translate(26 42.41)">
                <mask id="D" fill="#fff">
                    <use xlink:href="#C"/>
                </mask>
                <path d="M29.9 12.113c-.23-.934-.487-1.755-.787-2.51-.171-.428-.47-.805-.757-1.17l-.073-.091c-.201-.256-.5-.538-1.028-.452-.042.007-.077.035-.094.074-.017.04-.012.084.012.119 1.089 1.577 1.719 3.298 1.926 5.263.004.04.028.077.063.095.018.01.039.016.06.016.019 0 .038-.004.055-.013.563-.277.773-.726.624-1.331" fill="#F6C364" mask="url(#D)"/>
            </g>
            <g transform="translate(26 42.41)">
                <mask id="F" fill="#fff">
                    <use xlink:href="#E"/>
                </mask>
                <path d="M29.472 7.099c-.325-.38-.746-.74-1.29-1.101-.572-.381-1.242-.254-1.63.309-.121.177-.215.458-.16.653.088.304.368.486.696.451.773-.083 1.293.366 1.699.814.178.196.325.417.434.588.57.894.827 1.883 1.037 3.091.178 1.026-.145 1.691-.988 2.033-.02.008-.033.025-.037.046-.123.655-.073 1.157.164 1.626.188.37.379.559.603.596.025.004.052.006.078.006.198 0 .417-.119.667-.363.575-.562.89-1.265.936-2.087.14-2.54-.602-4.781-2.21-6.662" fill="#E8824A" mask="url(#F)"/>
            </g>
            <g transform="translate(26 42.41)">
                <mask id="H" fill="#fff">
                    <use xlink:href="#G"/>
                </mask>
                <path d="M20.252 4.516c-.562-.07-1.036-.022-1.49.148-.462.174-.944.295-1.354.391-.838.196-1.69.386-2.517.568l-.909.203c-.848.189-1.516.649-2.04 1.406-1.023 1.473-1.728 3.184-2.287 5.548-.253 1.07-.34 2.218-.266 3.51.082 1.437.83 2.579 1.525 3.536.014.019.038.03.06.025.024-.004.043-.021.05-.043.041-.138.033-.255.024-.369l-.062.003.062-.005c-.179-2.479-.017-4.734.497-6.897.425-1.788 1.176-3.206 2.296-4.335.455-.459.983-.741 1.662-.887.453-.098.754-.013 1.076.305.391.389.783.776 1.176 1.163.734.723 1.493 1.471 2.231 2.214.303.305.594.65.863 1.026 1.077 1.498 1.997 3.272 2.813 5.426.036.095.077.188.122.29.022.048.044.099.067.154.007.016.021.028.038.034.017.006.036.003.051-.006l.263-.157c.345-.206.692-.258.976-.147.272.106.471.351.577.709.097.327.116.727.054 1.1-.06.358-.17.711-.289 1.085-.053.168-.107.341-.159.521-.007.025.002.051.023.067.011.008.024.012.037.012.012 0 .023-.003.034-.01 1.402-.913 2.405-2.312 2.825-3.94.303-1.175.406-2.41.317-3.774-.294-4.503-3.882-8.318-8.346-8.874" fill="#E8824A" mask="url(#H)"/>
            </g>
            <g transform="translate(26 42.41)">
                <mask id="J" fill="#fff">
                    <use xlink:href="#I"/>
                </mask>
                <path d="M17.413 20.84c-.31.32-.675.444-1.082.404-.403-.04-.64-.37-.61-.832.024-.382.127-.76.127-1.14.002-1.01 0-2.025-.069-3.032-.047-.69-.354-1.295-.909-1.753-.637-.528-1.338-.599-2.067-.189-.189.106-.38.21-.677.373.133-.615.475-.872.909-1.013.707-.229 1.381-.143 1.982.325.627.488 1.049 1.113 1.177 1.908.198 1.23.198 2.466.062 3.703-.027.246-.075.493-.073.74 0 .364.136.466.506.458.226-.005.462-.22.724.047" fill="#33475C" mask="url(#J)"/>
            </g>
            <g transform="translate(26 42.41)">
                <mask id="L" fill="#fff">
                    <use xlink:href="#K"/>
                </mask>
                <path d="M19.298 22.36c-1.09 1.398-3.958 1.362-4.607-.074.533.2.998.45 1.492.544.496.094 1.031.1 1.53.023.515-.08 1.007-.305 1.585-.492" fill="#33475C" mask="url(#L)"/>
            </g>
            <g transform="translate(26 42.41)">
                <mask id="N" fill="#fff">
                    <use xlink:href="#M"/>
                </mask>
                <path d="M26.098 41.02c.309.2.44.452.457.759.053.987.119 1.975.047 2.965-.015.199-.049.406-.127.587-.065.153-.237.153-.315.007-.08-.154-.134-.34-.14-.513-.032-.902-.192-1.787-.297-2.68-.05-.416-.01-.808.375-1.125" fill="#000" mask="url(#N)"/>
            </g>
            <g transform="translate(26 42.41)">
                <mask id="P" fill="#fff">
                    <use xlink:href="#O"/>
                </mask>
                <path d="M8.71 44.773c-.209-.026-.217-.204-.255-.347-.245-.921-.309-1.862-.315-2.81 0-.068-.005-.14.014-.201.08-.251.113-.621.415-.616.272.005.3.37.303.6.018 1.01.141 2.023-.012 3.033-.019.123.013.276-.15.34" fill="#000" mask="url(#P)"/>
            </g>
            <g transform="translate(26 42.41)">
                <mask id="R" fill="#fff">
                    <use xlink:href="#Q"/>
                </mask>
                <path d="M27.768 33.77c-1.917.59-3.87 1.014-5.863 1.225l-.006.007c-1.614.277-5.577.07-5.684.064h-.006c-.122-.005-.244-.013-.365-.023-1.996-.165-3.99-.34-5.885-1.07-.168-.064-.337-.126-.503-.194-.06-.026-.116-.067-.202-.117.071-.224.293-.25.451-.336.905-.5 1.821-.98 2.724-1.484.826-.462 1.63-.965 2.277-1.667.73-.77.748-1.17.748-1.17.032-.714.027-1.427-.122-2.185l-.072-.351c.236.14.473.28.716.415.56.31 1.146.544 1.803.45 1.763-.252 3.227-1.088 4.47-2.335.158-.16.25-.384.373-.58l-.182-.167c-.226.165-.462.318-.674.498-1.023.873-2.125 1.579-3.46 1.896-.73.174-1.377.064-2.014-.29-.93-.52-1.769-1.163-2.548-1.884-1.097-1.014-1.758-2.266-2.025-3.734-.415-2.287-.32-4.575-.014-6.864.196-1.472.665-2.85 1.464-4.104.44-.688.947-1.322 1.697-1.703.551-.28 1.034-.204 1.481.218.901.849 1.811 1.692 2.694 2.56.497.489.967 1.009 1.41 1.547.232.28.38.634.593 1.006-1.465-.122-2.029.108-2.097.829.268-.07.527-.14.786-.206.923-.237 1.856.17 2.242 1.032.533 1.19 1.025 2.399 1.545 3.595.062.143.187.258.388.525.08-.338.111-.501.156-.66.087-.306.473-.612.747-.574.338.048.517.302.555.6.04.307.021.632-.036.937-.134.707-.505 1.298-1.005 1.805-.478.484-.724 1.05-.85 1.654h-.002l-.003.015c-.039.192-.068.388-.087.588-.03.217-.062.475-.09.736l-.045.609c-.065.727-.126 1.325-.173 1.926-.05.628-.102 1.262-.013 1.885 0 0 .317.953.691 1.169 1.706.96 3.432 1.885 5.104 2.903.128.077.3.117.347.335-.427.32-.928.513-1.436.669M10.986 19.442c.01.11.017.22-.022.348-.766-1.056-1.435-2.148-1.513-3.503-.067-1.177-.006-2.347.265-3.494.463-1.96 1.112-3.847 2.276-5.525.501-.722 1.15-1.191 2.004-1.382 1.142-.255 2.286-.504 3.426-.77.46-.108.92-.228 1.36-.394.482-.181.964-.207 1.462-.144 4.448.553 8 4.33 8.292 8.816.083 1.268.002 2.522-.315 3.755-.414 1.606-1.407 2.997-2.799 3.903.168-.584.361-1.09.45-1.612.06-.365.048-.775-.057-1.13-.236-.798-.926-1.024-1.644-.597l-.263.159c-.07-.166-.135-.302-.188-.442-.729-1.923-1.617-3.765-2.82-5.44-.262-.365-.553-.715-.87-1.032-1.127-1.135-2.272-2.252-3.408-3.378-.32-.318-.638-.43-1.132-.323-.674.146-1.223.43-1.693.905-1.21 1.22-1.922 2.722-2.313 4.365-.54 2.272-.667 4.586-.498 6.915m15.617-13.1c.363-.528.984-.665 1.545-.292.463.308.916.669 1.276 1.089 1.625 1.902 2.333 4.125 2.194 6.618-.044.797-.348 1.49-.917 2.046-.545.532-.91.446-1.249-.222-.247-.488-.272-.988-.159-1.586.971-.394 1.186-1.176 1.025-2.102-.189-1.088-.44-2.163-1.046-3.113-.132-.208-.275-.413-.44-.596-.466-.516-.995-.915-1.75-.835-.315.033-.556-.144-.63-.406-.05-.175.038-.437.151-.601m.671 1.67c.454-.073.713.154.911.406.305.386.634.783.812 1.23.321.809.574 1.649.783 2.494.106.429.045.894-.559 1.19-.208-1.977-.836-3.711-1.947-5.32m6.153 34.968c-.104-1.868-.255-3.734-.588-5.576-.232-1.286-.56-2.567-1.362-3.64-.355-.543-.9-.888-.9-.888-.845-.474-1.64-.893-2.408-1.36-1.176-.714-2.399-1.342-3.634-1.941-.704-.342-.988-.833-.967-1.604.033-1.195.124-2.383.27-3.57l.114-.687c.018-.122.036-.244.052-.367.043-.34.206-.571.49-.762.522-.352 1.042-.712 1.534-1.106 1.47-1.176 2.498-2.645 2.922-4.503.034-.147.092-.29.14-.44.943.496 1.593.362 2.263-.46.423-.516.67-1.115.806-1.765.188-.897.13-1.795-.005-2.69-.289-1.922-1.047-3.633-2.396-5.045-.383-.403-.84-.762-1.322-1.035-.866-.492-1.656-.29-2.268.488-.08.102-.155.21-.248.335-.104-.072-.18-.114-.244-.17-1.486-1.34-3.242-2.092-5.206-2.384-.264-.04-.544-.06-.804-.015-.73.126-1.46.269-2.18.447-1.093.27-2.164.633-3.266.854-1.61.323-2.727 1.215-3.426 2.675-.106.224-.239.437-.319.67-.517 1.512-1.097 3.008-1.509 4.547-.43 1.605-.459 3.25.026 4.874.326 1.09 1.026 1.939 1.732 2.793.225.273.493.559.587.885.452 1.57 1.32 2.85 2.572 3.88l.516.433.162.625c.142.66.306 1.314.315 1.998.006.413-.107.754-.414 1.025-.286.254-.559.53-.873.746-1.619 1.106-3.383 1.96-5.054 2.927 0 0-1.457.815-1.812 1.336-.148.243-.296.488-.439.734-.455.78-.877 1.579-1.058 2.474-.283 1.399-.376 2.813-.29 4.237.017.292.063.584.124.869.045.209.068.503.375.463.25-.033.241-.288.25-.491.001-.067-.004-.135-.004-.203v-.437c-.009-.292-.007-.796 0-1.313v-.008c.012-.862.036-1.757.036-1.757.035-1.728.855-3.152 1.8-4.514.334-.483.666-.521 1.23-.265 1.155.527 2.361.879 3.612 1.089 1.558.263 3.132.362 4.707.454 0 0 3.301.05 4.092-.021 1.236-.105 2.47-.231 3.683-.491 1.74-.373 3.507-.673 4.977-1.791.165-.126.286-.06.426.022.572.336.916.86 1.17 1.448.373.872.646 1.778.796 2.716.268 1.67.435 3.352.566 5.036.021.269.067.536.117.8.022.119.118.196.241.2.16.008.253-.1.272-.242.025-.178.031-.36.021-.54" fill="#33475C" mask="url(#R)"/>
            </g>
            <g transform="translate(26 42.41)">
                <mask id="T" fill="#fff">
                    <use xlink:href="#S"/>
                </mask>
                <path d="M14.845 15.682c-.03-.055-.064-.108-.102-.159-.26-.352-.582-.34-.934-.062-.386.307-.524 1.002-.306 1.545.251.627.94.787 1.333.234.11-.154.164-.278.175-.733.011-.452-.163-.819-.166-.825" fill="#33475C" mask="url(#T)"/>
            </g>
            <g transform="translate(26 42.41)">
                <mask id="V" fill="#fff">
                    <use xlink:href="#U"/>
                </mask>
                <path d="M20.813 15.559c-.03-.056-.064-.109-.102-.159-.26-.353-.583-.342-.934-.063-.386.307-.525 1.002-.307 1.545.252.627.94.787 1.333.234.11-.154.165-.277.176-.733.011-.452-.164-.819-.166-.824" fill="#33475C" mask="url(#V)"/>
            </g>
        </g>
        <g stroke="#33475C" stroke-linecap="round" stroke-linejoin="round">
            <path d="M65.313 62.943c0 10.8-8.756 19.558-19.557 19.558-10.802 0-19.558-8.757-19.558-19.558 0-10.802 8.756-19.558 19.558-19.558 10.8 0 19.557 8.756 19.557 19.558z"/>
            <path d="M41.615 22.058c0 10.8-8.756 19.558-19.558 19.558-10.8 0-19.557-8.757-19.557-19.558C2.5 11.256 11.256 2.5 22.057 2.5c10.802 0 19.558 8.756 19.558 19.558z" stroke-width="5"/>
        </g>
        <g>
            <g transform="translate(2 2.41)">
                <mask id="X" fill="#fff">
                    <use xlink:href="#W"/>
                </mask>
                <path d="M5.579 44.01s14.108 6.775 29.846-1.165l-.144-2.74-.877-5.013-1.19-2.13-2.663-1.44-2.753-.749s-1.57 2.44-3.199 3.63c-1.629 1.19-4.097 2.443-4.097 2.443l-1.729-2.976-.533-.063-1.973 2.005s-1.983-.702-2.851-1.942c-.868-1.24-2.036-2.256-2.036-2.256l-3.176 2.288s-1.805 1.566-1.899 3.915c-.094 2.35-.726 6.192-.726 6.192z" stroke="#33475C" stroke-width="5" stroke-linecap="round" stroke-linejoin="round" mask="url(#X)"/>
            </g>
            <g transform="translate(2 2.41)">
                <mask id="Z" fill="#fff">
                    <use xlink:href="#Y"/>
                </mask>
                <path d="M22.374 12.818c-.377-.628-.73-1.152-1.164-1.621-1.19-1.29-2.526-2.432-3.78-3.655-.356-.346-.83-.436-1.325-.196-.355.172-.658.404-.932.682-1.104 1.122-1.755 2.498-2.098 4.003-.563 2.46-.665 4.955-.347 7.465.17 1.333.544 2.585 1.403 3.647.99 1.223 2.226 2.14 3.606 2.875.595.317 1.215.287 1.858.13 1.345-.33 2.447-1.07 3.476-1.956.191-.164.434-.54.652-.334.297.282-.115.526-.296.704-.988.969-2.127 1.68-3.467 2.1-1.107.348-2.096.235-3.06-.385-.29-.187-.577-.414-.959-.487 0 .18-.008.315.001.45.074 1.073.096 2.137-.339 3.159-.14.33-.05.675.12.985.638 1.174 1.527 2.085 2.763 2.638.175.078.317.118.511.035 2.096-.89 3.902-2.141 5.173-4.078.267-.407.497-.807.268-1.322-.06-.136-.026-.316-.029-.475-.024-1.208.058-2.411.156-3.615.096-1.186.381-2.272 1.286-3.143.503-.484.718-1.152.816-1.843.045-.323.026-.64-.163-.92-.224-.333-.46-.361-.817-.178-.313.162-.352.497-.54.793-.257-.328-.39-.66-.507-1-.327-.95-.759-1.853-1.234-2.735-.503-.936-1.56-1.37-2.605-1.092-.233.062-.462.19-.726.127.297-.755.761-.915 2.3-.758z" stroke="#33475C" stroke-width="5" stroke-linecap="round" stroke-linejoin="round" mask="url(#Z)"/>
            </g>
            <g transform="translate(2 2.41)">
                <mask id="ab" fill="#fff">
                    <use xlink:href="#aa"/>
                </mask>
                <path d="M18.105 33.54c-.18-.097-.334-.19-.496-.267-.868-.41-1.538-1.042-2.044-1.85-.192-.308-.403-.611-.542-.943-.131-.314-.286-.343-.575-.229-.76.301-1.52.611-2.334.744-.176.028-.366.026-.506.17.002.044-.008.095.01.13.062.12.128.24.203.352.875 1.327 1.998 2.413 3.26 3.363.236.178.51.291.783.409.22.095.399.059.556-.105.547-.572 1.09-1.148 1.685-1.773zm9.693-3.383c-.87-.38-1.686-.721-2.451-1.175-.434-.256-.454-.247-.71.23-.388.724-.82 1.42-1.428 1.985-1.09 1.014-2.255 1.917-3.683 2.415-.263.091-.376.186-.227.484.294.59.539 1.206.827 1.799.318.656.36.682 1.03.331 1.64-.858 3.172-1.88 4.48-3.203.834-.84 1.61-1.729 2.162-2.867zm-5.423-17.34c-.377-.627-.731-1.152-1.165-1.62-1.19-1.29-2.525-2.431-3.78-3.655-.356-.346-.831-.436-1.325-.196-.354.173-.657.404-.931.681-1.105 1.123-1.755 2.498-2.1 4.004-.561 2.46-.663 4.954-.345 7.464.169 1.333.543 2.585 1.403 3.648.989 1.223 2.226 2.14 3.605 2.875.596.316 1.216.287 1.858.13 1.346-.33 2.448-1.07 3.477-1.956.19-.165.433-.54.65-.334.299.282-.114.526-.295.703-.988.97-2.127 1.68-3.467 2.102-1.106.348-2.095.233-3.06-.387-.291-.186-.576-.413-.96-.486 0 .18-.006.315.003.45.074 1.073.095 2.137-.34 3.159-.14.33-.05.674.119.985.639 1.174 1.529 2.085 2.765 2.638.175.078.317.119.51.035 2.096-.89 3.903-2.142 5.174-4.079.267-.407.496-.806.268-1.322-.06-.136-.026-.314-.03-.473-.024-1.209.059-2.413.156-3.616.097-1.186.382-2.273 1.286-3.143.504-.485.719-1.152.817-1.843.045-.322.025-.64-.164-.92-.224-.334-.461-.36-.816-.178-.314.162-.353.497-.541.793-.257-.328-.39-.66-.507-1-.327-.95-.76-1.852-1.233-2.736-.503-.935-1.562-1.368-2.605-1.091-.234.063-.463.19-.726.127.297-.756.76-.915 2.299-.758zm10.355 2.027c.05-.153-.014-.226-.06-.303-.811-1.396-1.62-2.799-2.44-4.19-1.013-1.72-2.232-3.274-3.762-4.57-1.404-1.188-2.875-2.217-4.783-2.466-.911-.12-1.76-.094-2.59.308-.8.386-1.627.701-2.467.994-1.59.556-3.166 1.149-4.75 1.72-.474.173-.794.493-1.046.928-.861 1.49-1.441 3.093-1.938 4.73-.31 1.017-.534 2.058-.69 3.136.265-.04.339-.428.607-.284.287.155.11.452.139.684.003.022 0 .045-.003.069-.153 1.367-.057 2.731.048 4.094.053.695.09 1.398.262 2.098.498-.396.615-.385.773.142.209.697.39 1.404.54 2.116.258 1.206.76 2.287 1.555 3.229.648.77 1.08 1.627 1.137 2.648.002.034.053.064.118.134.428-.171.858-.377 1.308-.517.38-.12.538-.343.604-.724.172-1 .097-1.997.073-2.998-.011-.451-.166-.75-.508-1.04-1.504-1.277-2.352-2.912-2.637-4.87-.242-1.66-.207-3.317-.084-4.976.08-1.088.205-2.178.51-3.235.449-1.552 1.106-2.987 2.246-4.166.32-.33.677-.604 1.108-.78 1.059-.433 1.235-.4 2.027.383.973.96 1.942 1.922 2.923 2.873.643.623 1.195 1.315 1.662 2.075.93 1.515 1.815 3.054 2.42 4.736.146.4.16.395.553.216.654-.296 1.329.032 1.536.758.076.264.083.538.063.813-.071.941-.401 1.777-1.055 2.462-.474.496-.756 1.08-.87 1.745-.278 1.623-.376 3.257-.305 4.902.01.28.096.444.37.572.908.422 1.788.905 2.719 1.277.24.098.506.21.446.517-.066.335.11.364.352.405.177.031.345.116.517.174.545.18.569.186.718-.348.602-2.162 1.032-4.345.696-6.607-.017-.111-.036-.225-.04-.338-.004-.17.046-.323.216-.39.15-.06.264.035.36.133.16.16.304.34.469.495.104.1.18.287.415.174.063-1.901.029-3.806-.332-5.698-.171-.895-.411-1.773-.645-2.652-.137-.514.012-.664.546-.62.315.027.629.098.969.033zM18.114 34.505c-.525.39-.861.756-1.21 1.107-.575.578-.767.615-1.512.31-.405-.165-.76-.408-1.088-.695-.982-.858-1.88-1.79-2.616-2.872-.076-.111-.163-.216-.234-.31-.068-.006-.123-.026-.15-.008-.944.675-1.895 1.34-2.824 2.034-1.004.75-1.488 1.805-1.711 3.013-.253 1.367-.35 2.755-.54 4.13-.105.767-.208 1.535-.34 2.297-.034.191.024.553-.31.498-.283-.047-.192-.37-.195-.586-.006-.547.07-1.09.142-1.632.188-1.444.383-2.888.552-4.335.226-1.946 1.217-3.392 2.822-4.464.396-.264.763-.575 1.127-.884.244-.205.46-.442.765-.563.167-.068.265-.163.182-.365-.148-.36.086-.506.37-.585.374-.104.752-.192 1.133-.26.307-.053.332-.19.268-.474-.17-.742-.403-1.448-.905-2.038-1.017-1.19-1.63-2.567-1.902-4.102-.044-.245-.11-.49-.17-.732-.01-.034-.05-.06-.075-.088-.115.012-.142.105-.175.188-.054.134-.127.25-.29.242-.207-.01-.238-.18-.27-.337-.297-1.453-.493-2.92-.54-4.401-.023-.79-.003-1.58-.003-2.44-.29.119-.332.337-.445.489-.073.096-.165.169-.287.137-.16-.038-.203-.171-.19-.317.03-.294.064-.588.108-.881.38-2.534 1.028-4.992 2.107-7.326.096-.207.218-.403.299-.614.426-1.11 1.275-1.713 2.365-2.09 2.323-.806 4.627-1.663 6.899-2.606.786-.325 1.606-.384 2.472-.285 2.18.246 3.845 1.428 5.43 2.803 1.66 1.44 2.909 3.19 3.97 5.093.733 1.313 1.48 2.616 2.214 3.927.14.248.396.502.185.808-.178.258-.49.195-.76.191-.92-.014-.922-.018-.674.845.755 2.62.864 5.291.643 7.99-.017.204-.015.431-.248.52-.268.1-.414-.096-.568-.27-.146-.165-.24-.384-.473-.474-.166.123-.091.294-.08.436.178 2.055-.2 4.037-.768 5.994-.153.527-.154.514.306.758.724.384 1.44.782 2.158 1.177.69.378 1.155.949 1.423 1.684.1.277.208.556.27.843.505 2.293.982 4.589 1.005 6.95.002.227.018.457-.058.676-.047.137-.134.254-.293.235-.12-.015-.194-.118-.212-.238-.026-.18-.048-.361-.055-.543-.086-2.17-.516-4.292-.934-6.415-.07-.355-.191-.703-.301-1.05-.245-.78-.741-1.331-1.48-1.699-1.2-.596-2.342-1.325-3.694-1.56-.246-.042-.447-.357-.672-.236-.197.105-.303.383-.448.584-.438.617-.957 1.161-1.487 1.694-1.458 1.467-3.15 2.614-5 3.527-.808.4-1.04.302-1.46-.502-.19-.361-.327-.75-.5-1.122-.093-.2-.12-.438-.347-.623-.187.76-.218 1.506-.29 2.24-.25 2.544-.244 5.095-.135 7.647.026.613.01 1.229.006 1.844-.001.102.007.253-.137.272-.205.026-.188-.152-.202-.277-.15-1.337-.176-2.683-.212-4.025-.054-2.025-.001-4.053.1-6.08.029-.542.09-1.084.149-1.779z" stroke="#33475C" stroke-width="5" stroke-linecap="round" stroke-linejoin="round" mask="url(#ab)"/>
            </g>
            <g transform="translate(2 2.41)">
                <mask id="ad" fill="#fff">
                    <use xlink:href="#ac"/>
                </mask>
                <path d="M29.255 42.226c.244.167.352.406.37.683.051.793.044 1.587-.056 2.377-.014.11-.052.221-.098.323-.025.053-.086.103-.142.123-.109.039-.17-.05-.202-.13-.042-.105-.06-.218-.082-.328-.149-.764-.118-1.536-.114-2.307.001-.273.084-.535.324-.741z" stroke="#33475C" stroke-width="5" stroke-linecap="round" stroke-linejoin="round" mask="url(#ad)"/>
            </g>
            <g transform="translate(2 2.41)">
                <mask id="af" fill="#fff">
                    <use xlink:href="#ae"/>
                </mask>
                <path d="M8.902 42.213c.229.22.302.456.32.704.058.746.106 1.494.15 2.241.008.134.008.283-.044.401-.078.176-.231.223-.37.054-.07-.083-.121-.196-.141-.302-.164-.85-.191-1.71-.163-2.575.006-.18.075-.354.248-.523z" stroke="#33475C" stroke-width="5" stroke-linecap="round" stroke-linejoin="round" mask="url(#af)"/>
            </g>
            <g transform="translate(2 2.41)">
                <mask id="ah" fill="#fff">
                    <use xlink:href="#ag"/>
                </mask>
                <path d="M16.47 40.947c-.008.244-.215.473-.416.442-.248-.038-.335-.226-.33-.442.004-.21.076-.41.332-.441.215-.026.42.2.413.44z" stroke="#33475C" stroke-width="5" stroke-linecap="round" stroke-linejoin="round" mask="url(#ah)"/>
            </g>
            <g transform="translate(2 2.41)">
                <mask id="aj" fill="#fff">
                    <use xlink:href="#ai"/>
                </mask>
                <path d="M16.06 44.73c-.241-.027-.36-.172-.35-.41.01-.235.248-.496.418-.452.229.057.332.23.305.46-.026.214-.107.397-.373.403z" stroke="#33475C" stroke-width="5" stroke-linecap="round" stroke-linejoin="round" mask="url(#aj)"/>
            </g>
            <g transform="translate(2 2.41)">
                <mask id="al" fill="#fff">
                    <use xlink:href="#ak"/>
                </mask>
                <path d="M13.287 13.954c.076-.474.388-.718.775-.866.786-.298 1.523-.195 2.182.34.71.575 1.102 1.33 1.178 2.232.107 1.25.168 2.502-.046 3.748-.018.111-.04.226-.042.338-.005.366.134.51.479.51.045 0 .088-.018.135-.021.192-.014.488-.181.55.035.086.296-.271.3-.465.37-.739.264-1.236-.108-1.13-.9.155-1.156.216-2.311.126-3.473-.06-.78-.2-1.527-.753-2.147-.674-.755-1.656-.89-2.457-.353-.145.095-.287.213-.532.187z" stroke="#33475C" stroke-width="5" stroke-linecap="round" stroke-linejoin="round" mask="url(#al)"/>
            </g>
            <g transform="translate(2 2.41)">
                <mask id="an" fill="#fff">
                    <use xlink:href="#am"/>
                </mask>
                <path d="M16.255 15.977c-.01.069-.013.207-.049.336-.104.366-.507.683-.847.682-.33-.001-.668-.272-.752-.678-.102-.493-.146-.999.276-1.394.38-.355.791-.317 1.105.091.163.211.264.549.267.963z" stroke="#33475C" stroke-width="5" stroke-linecap="round" stroke-linejoin="round" mask="url(#an)"/>
            </g>
            <g transform="translate(2 2.41)">
                <mask id="ap" fill="#fff">
                    <use xlink:href="#ao"/>
                </mask>
                <path d="M22.247 15.648c.012.609-.377 1.119-.852 1.116-.512-.003-.841-.456-.814-1.118.03-.701.462-1.102 1.014-.94.353.104.643.523.652.942z" stroke="#33475C" stroke-width="5" stroke-linecap="round" stroke-linejoin="round" mask="url(#ap)"/>
            </g>
            <g transform="translate(2 2.41)">
                <mask id="ar" fill="#fff">
                    <use xlink:href="#aq"/>
                </mask>
                <path d="M20.413 21.87c-.181.44-.553.652-.96.79-.933.317-1.872.299-2.8-.035-.468-.168-.598-.328-.811-.959 1.527.997 3.027.974 4.571.203z" stroke="#33475C" stroke-width="5" stroke-linecap="round" stroke-linejoin="round" mask="url(#ar)"/>
            </g>
            <g transform="translate(2 2.41)">
                <mask id="at" fill="#fff">
                    <use xlink:href="#as"/>
                </mask>
                <path d="M32.73 14.844c.051-.153-.015-.226-.059-.303-.813-1.397-1.62-2.799-2.44-4.19-1.015-1.72-2.233-3.274-3.763-4.57-1.404-1.189-2.876-2.217-4.783-2.466-.912-.119-1.76-.094-2.589.307-.8.387-1.629.702-2.469.995-1.589.556-3.166 1.148-4.749 1.72-.475.172-.795.492-1.046.927-.862 1.49-1.44 3.095-1.939 4.73-.31 1.017-.534 2.058-.689 3.136.265-.04.34-.427.607-.283.286.154.11.451.138.684.003.022 0 .045-.003.068-.152 1.367-.057 2.732.048 4.095.054.694.09 1.397.262 2.097.498-.394.616-.384.773.143.21.697.39 1.404.542 2.116.257 1.206.76 2.287 1.553 3.23.65.768 1.08 1.626 1.138 2.647.002.033.053.063.117.135.43-.173.858-.378 1.308-.519.381-.119.54-.342.604-.723.172-.999.098-1.997.074-2.998-.01-.452-.167-.749-.509-1.04-1.503-1.278-2.352-2.912-2.637-4.87-.24-1.66-.206-3.318-.084-4.976.08-1.089.206-2.178.511-3.235.448-1.55 1.106-2.987 2.246-4.166.32-.33.677-.605 1.108-.78 1.06-.433 1.235-.4 2.027.382.973.96 1.942 1.923 2.923 2.874.642.623 1.194 1.314 1.661 2.075.931 1.515 1.815 3.054 2.422 4.736.144.4.158.394.551.216.654-.296 1.33.033 1.537.757.075.264.083.54.062.814-.07.941-.4 1.777-1.055 2.463-.474.496-.756 1.08-.87 1.745-.278 1.622-.375 3.256-.305 4.901.012.28.096.443.371.571.907.423 1.787.906 2.718 1.28.242.095.507.208.447.514-.066.336.11.365.351.407.177.031.345.115.518.172.545.181.568.187.717-.346.603-2.162 1.033-4.346.697-6.608-.017-.112-.036-.225-.04-.339-.005-.169.046-.322.216-.389.15-.06.264.035.36.133.161.161.304.34.47.496.103.098.178.286.414.173.063-1.902.03-3.807-.332-5.698-.172-.895-.41-1.773-.646-2.653-.136-.514.012-.663.546-.618.316.026.63.096.97.031z" stroke="#33475C" stroke-width="5" stroke-linecap="round" stroke-linejoin="round" mask="url(#at)"/>
            </g>
            <g transform="translate(2 2.41)">
                <mask id="av" fill="#fff">
                    <use xlink:href="#au"/>
                </mask>
                <path d="M27.798 30.157c-.87-.38-1.686-.722-2.451-1.175-.434-.257-.454-.246-.71.23-.388.725-.82 1.42-1.427 1.985-1.091 1.014-2.256 1.917-3.683 2.415-.264.092-.377.187-.228.484.294.59.539 1.206.827 1.799.318.657.36.683 1.03.33 1.642-.857 3.172-1.88 4.48-3.202.834-.84 1.61-1.728 2.162-2.866z" stroke="#33475C" stroke-width="5" stroke-linecap="round" stroke-linejoin="round" mask="url(#av)"/>
            </g>
            <g transform="translate(2 2.41)">
                <mask id="ax" fill="#fff">
                    <use xlink:href="#aw"/>
                </mask>
                <path d="M18.105 33.54c-.18-.097-.334-.19-.496-.267-.868-.41-1.538-1.042-2.044-1.85-.192-.308-.403-.611-.542-.943-.131-.314-.286-.343-.575-.229-.76.301-1.52.611-2.334.744-.176.028-.366.026-.506.17.002.044-.008.095.01.13.062.12.128.24.203.352.875 1.327 1.998 2.413 3.26 3.363.236.178.51.291.783.409.22.095.399.059.556-.105.547-.572 1.09-1.148 1.685-1.773z" stroke="#33475C" stroke-width="5" stroke-linecap="round" stroke-linejoin="round" mask="url(#ax)"/>
            </g>
        </g>
        <g>
            <path d="M41.615 22.058c0 10.8-8.756 19.558-19.558 19.558-10.8 0-19.557-8.757-19.557-19.558C2.5 11.256 11.256 2.5 22.057 2.5c10.802 0 19.558 8.756 19.558 19.558z" stroke="#33475C" stroke-width="5" stroke-linecap="round" stroke-linejoin="round"/>
            <path d="M41.615 22.058c0 10.8-8.756 19.558-19.558 19.558-10.8 0-19.557-8.757-19.557-19.558C2.5 11.256 11.256 2.5 22.057 2.5c10.802 0 19.558 8.756 19.558 19.558" fill="#F6C364"/>
        </g>
        <g>
            <g transform="translate(2 2.41)">
                <mask id="az" fill="#fff">
                    <use xlink:href="#ay"/>
                </mask>
                <path d="M5.579 44.01s14.108 6.775 29.846-1.165l-.144-2.74-.877-5.013-1.19-2.13-2.663-1.44-2.753-.749s-1.57 2.44-3.199 3.63c-1.629 1.19-4.097 2.443-4.097 2.443l-1.729-2.976-.533-.063-1.973 2.005s-1.983-.702-2.851-1.942c-.868-1.24-2.036-2.256-2.036-2.256l-3.176 2.288s-1.805 1.566-1.899 3.915c-.094 2.35-.726 6.192-.726 6.192" fill="#0794D1" mask="url(#az)"/>
            </g>
            <g transform="translate(2 2.41)">
                <mask id="aB" fill="#fff">
                    <use xlink:href="#aA"/>
                </mask>
                <path d="M22.374 12.818c-.377-.628-.73-1.152-1.164-1.621-1.19-1.29-2.526-2.432-3.78-3.655-.356-.346-.83-.436-1.325-.196-.355.172-.658.404-.932.682-1.104 1.122-1.755 2.498-2.098 4.003-.563 2.46-.665 4.955-.347 7.465.17 1.333.544 2.585 1.403 3.647.99 1.223 2.226 2.14 3.606 2.875.595.317 1.215.287 1.858.13 1.345-.33 2.447-1.07 3.476-1.956.191-.164.434-.54.652-.334.297.282-.115.526-.296.704-.988.969-2.127 1.68-3.467 2.1-1.107.348-2.096.235-3.06-.385-.29-.187-.577-.414-.959-.487 0 .18-.008.315.001.45.074 1.073.096 2.137-.339 3.159-.14.33-.05.675.12.985.638 1.174 1.527 2.085 2.763 2.638.175.078.317.118.511.035 2.096-.89 3.902-2.141 5.173-4.078.267-.407.497-.807.268-1.322-.06-.136-.026-.316-.029-.475-.024-1.208.058-2.411.156-3.615.096-1.186.381-2.272 1.286-3.143.503-.484.718-1.152.816-1.843.045-.323.026-.64-.163-.92-.224-.333-.46-.361-.817-.178-.313.162-.352.497-.54.793-.257-.328-.39-.66-.507-1-.327-.95-.759-1.853-1.234-2.735-.503-.936-1.56-1.37-2.605-1.092-.233.062-.462.19-.726.127.297-.755.761-.915 2.3-.758" fill="#B07557" mask="url(#aB)"/>
            </g>
            <g transform="translate(2 2.41)">
                <mask id="aD" fill="#fff">
                    <use xlink:href="#aC"/>
                </mask>
                <path d="M18.105 33.54c-.18-.097-.334-.19-.496-.267-.868-.41-1.538-1.042-2.044-1.85-.192-.308-.403-.611-.542-.943-.131-.314-.286-.343-.575-.229-.76.301-1.52.611-2.334.744-.176.028-.366.026-.506.17.002.044-.008.095.01.13.062.12.128.24.203.352.875 1.327 1.998 2.413 3.26 3.363.236.178.51.291.783.409.22.095.399.059.556-.105.547-.572 1.09-1.148 1.685-1.773m9.693-3.384c-.87-.38-1.686-.721-2.451-1.175-.434-.256-.454-.247-.71.23-.388.724-.82 1.42-1.428 1.985-1.09 1.014-2.255 1.917-3.683 2.415-.263.091-.376.186-.227.484.294.59.539 1.206.827 1.799.318.656.36.682 1.03.331 1.64-.858 3.172-1.88 4.48-3.203.834-.84 1.61-1.729 2.162-2.867m-5.423-17.338c-.377-.628-.731-1.152-1.165-1.621-1.19-1.29-2.525-2.431-3.78-3.655-.356-.346-.831-.436-1.325-.196-.354.173-.657.404-.931.681-1.105 1.123-1.755 2.498-2.1 4.004-.561 2.46-.663 4.954-.345 7.464.169 1.333.543 2.585 1.403 3.648.989 1.223 2.226 2.14 3.605 2.875.596.316 1.216.287 1.858.13 1.346-.33 2.448-1.07 3.477-1.956.19-.165.433-.54.65-.334.299.282-.114.526-.295.703-.988.97-2.127 1.68-3.467 2.102-1.106.348-2.095.233-3.06-.387-.291-.186-.576-.413-.96-.486 0 .18-.006.315.003.45.074 1.073.095 2.137-.34 3.159-.14.33-.05.674.119.985.639 1.174 1.529 2.085 2.765 2.638.175.078.317.119.51.035 2.096-.89 3.903-2.142 5.174-4.079.267-.407.496-.806.268-1.322-.06-.136-.026-.314-.03-.473-.024-1.209.059-2.413.156-3.616.097-1.186.382-2.273 1.286-3.143.504-.485.719-1.152.817-1.843.045-.322.025-.64-.164-.92-.224-.334-.461-.36-.816-.178-.314.162-.353.497-.541.793-.257-.328-.39-.66-.507-1-.327-.95-.76-1.852-1.233-2.736-.503-.935-1.562-1.368-2.605-1.091-.234.063-.463.19-.726.127.297-.756.76-.915 2.299-.758m10.355 2.027c.05-.155-.014-.227-.06-.304-.811-1.396-1.62-2.799-2.44-4.19-1.013-1.72-2.232-3.274-3.762-4.57-1.404-1.188-2.875-2.217-4.783-2.466-.911-.12-1.76-.094-2.59.308-.8.386-1.627.701-2.467.994-1.59.556-3.166 1.149-4.75 1.72-.474.173-.794.493-1.046.928-.861 1.49-1.441 3.093-1.938 4.73-.31 1.017-.534 2.058-.69 3.136.265-.04.339-.428.607-.284.287.155.11.452.139.684.003.022 0 .045-.003.069-.153 1.367-.057 2.731.048 4.094.053.695.09 1.398.262 2.098.498-.396.615-.385.773.142.209.697.39 1.404.54 2.116.258 1.206.76 2.287 1.555 3.229.648.77 1.08 1.627 1.137 2.648.002.034.053.064.118.134.428-.171.858-.377 1.308-.517.38-.12.538-.343.604-.724.172-1 .097-1.997.073-2.998-.011-.451-.166-.75-.508-1.04-1.504-1.277-2.352-2.912-2.637-4.87-.242-1.66-.207-3.317-.084-4.976.08-1.088.205-2.178.51-3.235.449-1.552 1.106-2.987 2.246-4.166.32-.33.677-.604 1.108-.78 1.059-.433 1.235-.4 2.027.383.973.96 1.942 1.922 2.923 2.873.643.623 1.195 1.315 1.662 2.075.93 1.515 1.815 3.054 2.42 4.736.146.4.16.395.553.216.654-.296 1.329.032 1.536.758.076.264.083.538.063.813-.071.941-.401 1.777-1.055 2.462-.474.496-.756 1.08-.87 1.745-.278 1.623-.376 3.257-.305 4.902.01.28.096.444.37.572.908.422 1.788.905 2.719 1.277.24.098.506.21.446.517-.066.335.11.364.352.405.177.031.345.116.517.174.545.18.569.186.718-.348.602-2.162 1.032-4.345.696-6.607-.017-.111-.036-.225-.04-.338-.004-.17.046-.323.216-.39.15-.06.264.035.36.133.16.16.304.34.469.495.104.1.18.287.415.174.063-1.901.029-3.806-.332-5.698-.171-.895-.411-1.773-.645-2.652-.137-.514.012-.664.546-.62.315.027.629.098.969.033m-14.616 19.66c-.525.39-.861.756-1.21 1.107-.575.578-.767.615-1.512.31-.405-.165-.76-.408-1.088-.695-.982-.858-1.88-1.79-2.616-2.872-.076-.111-.163-.216-.234-.31-.068-.006-.123-.026-.15-.008-.944.675-1.895 1.34-2.824 2.034-1.004.75-1.488 1.805-1.711 3.013-.253 1.367-.35 2.755-.54 4.13-.105.767-.208 1.535-.34 2.297-.034.191.024.553-.31.498-.283-.047-.192-.37-.195-.586-.006-.547.07-1.09.142-1.632.188-1.444.383-2.888.552-4.335.226-1.946 1.217-3.392 2.822-4.464.396-.264.763-.575 1.127-.884.244-.205.46-.442.765-.563.167-.068.265-.163.182-.365-.148-.36.086-.506.37-.585.374-.104.752-.192 1.133-.26.307-.053.332-.19.268-.474-.17-.742-.403-1.448-.905-2.038-1.017-1.19-1.63-2.567-1.902-4.102-.044-.245-.11-.49-.17-.732-.01-.034-.05-.06-.075-.088-.115.012-.142.105-.175.188-.054.134-.127.25-.29.242-.207-.01-.238-.18-.27-.337-.297-1.453-.493-2.92-.54-4.401-.023-.79-.003-1.58-.003-2.44-.29.119-.332.337-.445.489-.073.096-.165.169-.287.137-.16-.038-.203-.171-.19-.317.03-.294.064-.588.108-.881.38-2.534 1.028-4.992 2.107-7.326.096-.207.218-.403.299-.614.426-1.11 1.275-1.713 2.365-2.09 2.323-.806 4.627-1.663 6.899-2.606.786-.325 1.606-.384 2.472-.285 2.18.246 3.845 1.428 5.43 2.803 1.66 1.44 2.909 3.19 3.97 5.093.733 1.313 1.48 2.616 2.214 3.927.14.248.396.502.185.808-.178.258-.49.195-.76.191-.92-.014-.922-.018-.674.845.755 2.62.864 5.291.643 7.99-.017.204-.015.431-.248.52-.268.1-.414-.096-.568-.27-.146-.165-.24-.384-.473-.474-.166.123-.091.294-.08.436.178 2.055-.2 4.037-.768 5.994-.153.527-.154.514.306.758.724.384 1.44.782 2.158 1.177.69.378 1.155.949 1.423 1.684.1.277.208.556.27.843.505 2.293.982 4.589 1.005 6.95.002.227.018.457-.058.676-.047.137-.134.254-.293.235-.12-.015-.194-.118-.212-.238-.026-.18-.048-.361-.055-.543-.086-2.17-.516-4.292-.934-6.415-.07-.355-.191-.703-.301-1.05-.245-.78-.741-1.331-1.48-1.699-1.2-.596-2.342-1.325-3.694-1.56-.246-.042-.447-.357-.672-.236-.197.105-.303.383-.448.584-.438.617-.957 1.161-1.487 1.694-1.458 1.467-3.15 2.614-5 3.527-.808.4-1.04.302-1.46-.502-.19-.361-.327-.75-.5-1.122-.093-.2-.12-.438-.347-.623-.187.76-.218 1.506-.29 2.24-.25 2.544-.244 5.095-.135 7.647.026.613.01 1.229.006 1.844-.001.102.007.253-.137.272-.205.026-.188-.152-.202-.277-.15-1.337-.176-2.683-.212-4.025-.054-2.025-.001-4.053.1-6.08.029-.542.09-1.084.149-1.779" fill="#33475C" mask="url(#aD)"/>
            </g>
            <g transform="translate(2 2.41)">
                <mask id="aF" fill="#fff">
                    <use xlink:href="#aE"/>
                </mask>
                <path d="M29.255 42.226c.244.167.352.406.37.683.051.793.044 1.587-.056 2.377-.014.11-.052.221-.098.323-.025.053-.086.103-.142.123-.109.039-.17-.05-.202-.13-.042-.105-.06-.218-.082-.328-.149-.764-.118-1.536-.114-2.307.001-.273.084-.535.324-.741" fill="#000" mask="url(#aF)"/>
            </g>
            <g transform="translate(2 2.41)">
                <mask id="aH" fill="#fff">
                    <use xlink:href="#aG"/>
                </mask>
                <path d="M8.902 42.213c.229.22.302.456.32.704.058.746.106 1.494.15 2.241.008.134.008.283-.044.401-.078.176-.231.223-.37.054-.07-.083-.121-.196-.141-.302-.164-.85-.191-1.71-.163-2.575.006-.18.075-.354.248-.523" fill="#000" mask="url(#aH)"/>
            </g>
            <g transform="translate(2 2.41)">
                <mask id="aJ" fill="#fff">
                    <use xlink:href="#aI"/>
                </mask>
                <path d="M16.47 40.947c-.008.244-.215.473-.416.442-.248-.038-.335-.226-.33-.442.004-.21.076-.41.332-.441.215-.026.42.2.413.44" fill="#000" mask="url(#aJ)"/>
            </g>
            <g transform="translate(2 2.41)">
                <mask id="aL" fill="#fff">
                    <use xlink:href="#aK"/>
                </mask>
                <path d="M16.06 44.73c-.241-.027-.36-.172-.35-.41.01-.235.248-.496.418-.452.229.057.332.23.305.46-.026.214-.107.397-.373.403" fill="#000" mask="url(#aL)"/>
            </g>
            <g transform="translate(2 2.41)">
                <mask id="aN" fill="#fff">
                    <use xlink:href="#aM"/>
                </mask>
                <path d="M13.287 13.954c.076-.474.388-.718.775-.866.786-.298 1.523-.195 2.182.34.71.575 1.102 1.33 1.178 2.232.107 1.25.168 2.502-.046 3.748-.018.111-.04.226-.042.338-.005.366.134.51.479.51.045 0 .088-.018.135-.021.192-.014.488-.181.55.035.086.296-.271.3-.465.37-.739.264-1.236-.108-1.13-.9.155-1.156.216-2.311.126-3.473-.06-.78-.2-1.527-.753-2.147-.674-.755-1.656-.89-2.457-.353-.145.095-.287.213-.532.187" fill="#33475C" mask="url(#aN)"/>
            </g>
            <g transform="translate(2 2.41)">
                <mask id="aP" fill="#fff">
                    <use xlink:href="#aO"/>
                </mask>
                <path d="M16.255 15.977c-.01.069-.013.207-.049.336-.104.366-.507.683-.847.682-.33-.001-.668-.272-.752-.678-.102-.493-.146-.999.276-1.394.38-.355.791-.317 1.105.091.163.211.264.549.267.963" fill="#33475C" mask="url(#aP)"/>
            </g>
            <g transform="translate(2 2.41)">
                <mask id="aR" fill="#fff">
                    <use xlink:href="#aQ"/>
                </mask>
                <path d="M22.247 15.648c.012.609-.377 1.119-.852 1.116-.512-.003-.841-.456-.814-1.118.03-.701.462-1.102 1.014-.94.353.104.643.523.652.942" fill="#33475C" mask="url(#aR)"/>
            </g>
            <g transform="translate(2 2.41)">
                <mask id="aT" fill="#fff">
                    <use xlink:href="#aS"/>
                </mask>
                <path d="M20.413 21.87c-.181.44-.553.652-.96.79-.933.317-1.872.299-2.8-.035-.468-.168-.598-.328-.811-.959 1.527.997 3.027.974 4.571.203" fill="#33475C" mask="url(#aT)"/>
            </g>
            <g transform="translate(2 2.41)">
                <mask id="aV" fill="#fff">
                    <use xlink:href="#aU"/>
                </mask>
                <path d="M32.73 14.844c.051-.153-.015-.226-.059-.303-.813-1.397-1.62-2.799-2.44-4.19-1.015-1.72-2.233-3.274-3.763-4.57-1.404-1.189-2.876-2.217-4.783-2.466-.912-.119-1.76-.094-2.589.307-.8.387-1.629.702-2.469.995-1.589.556-3.166 1.148-4.749 1.72-.475.172-.795.492-1.046.927-.862 1.49-1.44 3.095-1.939 4.73-.31 1.017-.534 2.058-.689 3.136.265-.04.34-.427.607-.283.286.154.11.451.138.684.003.022 0 .045-.003.068-.152 1.367-.057 2.732.048 4.095.054.694.09 1.397.262 2.097.498-.394.616-.384.773.143.21.697.39 1.404.542 2.116.257 1.206.76 2.287 1.553 3.23.65.768 1.08 1.626 1.138 2.647.002.033.053.063.117.135.43-.173.858-.378 1.308-.519.381-.119.54-.342.604-.723.172-.999.098-1.997.074-2.998-.01-.452-.167-.749-.509-1.04-1.503-1.278-2.352-2.912-2.637-4.87-.24-1.66-.206-3.318-.084-4.976.08-1.089.206-2.178.511-3.235.448-1.55 1.106-2.987 2.246-4.166.32-.33.677-.605 1.108-.78 1.06-.433 1.235-.4 2.027.382.973.96 1.942 1.923 2.923 2.874.642.623 1.194 1.314 1.661 2.075.931 1.515 1.815 3.054 2.422 4.736.144.4.158.394.551.216.654-.296 1.33.033 1.537.757.075.264.083.54.062.814-.07.941-.4 1.777-1.055 2.463-.474.496-.756 1.08-.87 1.745-.278 1.622-.375 3.256-.305 4.901.012.28.096.443.371.571.907.423 1.787.906 2.718 1.28.242.095.507.208.447.514-.066.336.11.365.351.407.177.031.345.115.518.172.545.181.568.187.717-.346.603-2.162 1.033-4.346.697-6.608-.017-.112-.036-.225-.04-.339-.005-.169.046-.322.216-.389.15-.06.264.035.36.133.161.161.304.34.47.496.103.098.178.286.414.173.063-1.902.03-3.807-.332-5.698-.172-.895-.41-1.773-.646-2.653-.136-.514.012-.663.546-.618.316.026.63.096.97.031" fill="#542B19" mask="url(#aV)"/>
            </g>
            <g transform="translate(2 2.41)">
                <mask id="aX" fill="#fff">
                    <use xlink:href="#aW"/>
                </mask>
                <path d="M27.798 30.157c-.87-.38-1.686-.722-2.451-1.175-.434-.257-.454-.246-.71.23-.388.725-.82 1.42-1.427 1.985-1.091 1.014-2.256 1.917-3.683 2.415-.264.092-.377.187-.228.484.294.59.539 1.206.827 1.799.318.657.36.683 1.03.33 1.642-.857 3.172-1.88 4.48-3.202.834-.84 1.61-1.728 2.162-2.866" fill="#0794D1" mask="url(#aX)"/>
            </g>
            <g transform="translate(2 2.41)">
                <mask id="aZ" fill="#fff">
                    <use xlink:href="#aY"/>
                </mask>
                <path d="M18.105 33.54c-.18-.097-.334-.19-.496-.267-.868-.41-1.538-1.042-2.044-1.85-.192-.308-.403-.611-.542-.943-.131-.314-.286-.343-.575-.229-.76.301-1.52.611-2.334.744-.176.028-.366.026-.506.17.002.044-.008.095.01.13.062.12.128.24.203.352.875 1.327 1.998 2.413 3.26 3.363.236.178.51.291.783.409.22.095.399.059.556-.105.547-.572 1.09-1.148 1.685-1.773" fill="#0794D1" mask="url(#aZ)"/>
            </g>
        </g>
        <g>
            <path d="M41.615 22.058c0 10.8-8.756 19.558-19.558 19.558-10.8 0-19.557-8.757-19.557-19.558C2.5 11.256 11.256 2.5 22.057 2.5c10.802 0 19.558 8.756 19.558 19.558z" stroke="#33475C" stroke-linecap="round" stroke-linejoin="round"/>
            <path d="M89.011 22.058c0 10.8-8.756 19.558-19.558 19.558-10.8 0-19.557-8.757-19.557-19.558 0-10.802 8.756-19.558 19.557-19.558 10.802 0 19.558 8.756 19.558 19.558z" stroke="#33475C" stroke-width="5" stroke-linecap="round" stroke-linejoin="round"/>
            <path d="M89.011 22.058c0 10.8-8.756 19.558-19.558 19.558-10.8 0-19.557-8.757-19.557-19.558 0-10.802 8.756-19.558 19.557-19.558 10.802 0 19.558 8.756 19.558 19.558z" stroke="#33475C" stroke-width="5" stroke-linecap="round" stroke-linejoin="round"/>
            <path d="M89.011 22.058c0 10.8-8.756 19.558-19.558 19.558-10.8 0-19.557-8.757-19.557-19.558 0-10.802 8.756-19.558 19.557-19.558 10.802 0 19.558 8.756 19.558 19.558z" stroke="#33475C" stroke-width="5" stroke-linecap="round" stroke-linejoin="round"/>
            <path d="M79.541 33.168c-1.427-.625-4.429-2.774-4.429-2.774-.292-4.138.647-7.234.647-7.234l-9.92 3.977s.173 4.062-.703 4.538c0 0-1.339-.034-3.619 1.858-2.28 1.894-2.887 1.403-3.76 2.767-.147.228-.274.63-.385 1.138 3.325 2.616 7.521 4.177 12.081 4.177 5.53 0 10.522-2.296 14.08-5.984-.56-1.253-2.59-1.849-3.992-2.463z" stroke="#33475C" stroke-width="5" stroke-linecap="round" stroke-linejoin="round"/>
            <path d="M79.541 33.168c-.357-.156-.813-.409-1.296-.698-1.683 2.754-5.113 7.064-9.812 6.38-4.139-.603-5.858-3.447-6.57-5.594-.114.088-.228.18-.346.277-2.28 1.894-2.887 1.402-3.76 2.767-.147.228-.274.63-.385 1.138 3.325 2.616 7.521 4.177 12.081 4.177 5.53 0 10.522-2.296 14.08-5.984-.56-1.253-2.59-1.849-3.992-2.463z" stroke="#33475C" stroke-width="5" stroke-linecap="round" stroke-linejoin="round"/>
            <path d="M80.481 33.154c-.28-.113-.545-.22-.79-.328-.312-.136-.733-.363-1.254-.677-.176-.105-.403-.05-.51.125-1.588 2.601-4.926 6.862-9.44 6.207-3.906-.569-5.566-3.22-6.27-5.343-.039-.115-.13-.204-.246-.239-.116-.035-.242-.012-.337.063-.116.09-.234.184-.355.285-1.039.861-1.704 1.206-2.238 1.482-.627.325-1.08.561-1.599 1.37-.147.23-.276.608-.39 1.081.212.174.427.343.646.508.111-.553.235-.972.372-1.187.411-.64.731-.808 1.314-1.11.526-.27 1.241-.642 2.305-1.516.86 2.22 2.711 4.764 6.69 5.343.356.052.705.077 1.047.077 4.221 0 7.32-3.756 8.943-6.32.407.236.75.414 1.022.533.256.113.526.222.811.337 1.24.5 2.644 1.067 3.012 1.988.012.027.023.057.034.087.191-.19.376-.383.558-.579-.575-1.078-2.03-1.666-3.325-2.187z" stroke="#33475C" stroke-width="5" stroke-linecap="round" stroke-linejoin="round"/>
            <path d="M61.863 33.256c.712 2.147 2.432 4.991 6.57 5.594 4.7.684 8.13-3.626 9.812-6.38-.673-.404-1.398-.882-1.98-1.277 0 0-3.208 5.15-7.08 5.193-3.874.044-5.408-4.324-5.408-4.324-.51.231-1.154.602-1.914 1.194z" stroke="#33475C" stroke-width="5" stroke-linecap="round" stroke-linejoin="round"/>
            <path d="M62.304 33.389c.75 2.076 2.429 4.546 6.183 5.093 4.335.63 7.586-3.277 9.243-5.89-.411-.255-.867-.55-1.362-.88-.323.47-1 1.392-1.926 2.324-1.778 1.788-3.545 2.705-5.253 2.723h-.06c-1.68 0-3.196-.79-4.392-2.286-.588-.736-.961-1.47-1.154-1.901-.41.214-.84.489-1.28.817zm7.123 5.906c-.342 0-.691-.024-1.047-.076-4.283-.623-6.1-3.522-6.87-5.846-.05-.15 0-.314.125-.411.688-.536 1.357-.953 1.988-1.24.095-.043.204-.044.3-.003.096.04.17.12.206.219.014.04 1.483 4.076 5 4.076h.05c3.629-.041 6.739-4.97 6.77-5.02.053-.084.14-.145.239-.166.099-.02.202-.001.286.056.743.504 1.403.93 1.964 1.266.085.052.146.135.17.23.024.097.008.199-.044.284-1.562 2.558-4.742 6.63-9.137 6.63z" stroke="#33475C" stroke-width="5" stroke-linecap="round" stroke-linejoin="round"/>
            <path d="M68.487 38.482c-3.754-.547-5.433-3.017-6.183-5.093.103-.077.205-.15.307-.22.012-.01.023-.017.035-.025.09-.062.179-.121.268-.18l.075-.047c.076-.047.15-.093.225-.137l.106-.062c.063-.037.125-.071.188-.104.025-.014.05-.028.076-.04.192.43.566 1.164 1.153 1.899 1.196 1.497 2.713 2.287 4.392 2.286h.06c1.708-.018 3.475-.935 5.253-2.722.927-.933 1.602-1.853 1.926-2.325.424.284.896.593 1.362.88-1.658 2.614-4.908 6.52-9.243 5.89zm-3.36-6.434c.066.004.13-.013.187-.045.313-.17.744-.64.875-2.752.047-.764.04-1.49.03-1.865l8.998-3.606c-.263 1.163-.69 3.617-.476 6.64.008.11.065.212.155.277.04.028.374.266.854.597-.74 1.07-3.464 4.685-6.57 4.72h-.051c-2.923 0-4.43-2.785-4.865-3.75.556-.211.859-.216.863-.216zm15.355 1.107c-.281-.113-.545-.22-.791-.328-.342-.15-.783-.394-1.252-.676l-.001-.001-.207-.125-.018-.011-.19-.118-.034-.02-.174-.111-.126-.08-.038-.024c-.351-.224-.695-.452-1.008-.662l-.073-.05c-.491-.331-.894-.613-1.097-.757-.245-3.927.634-6.894.643-6.924.042-.137 0-.285-.105-.383-.106-.096-.257-.124-.39-.071L65.7 26.79c-.147.059-.24.204-.234.362.083 1.946-.13 3.819-.46 4.157-.218.02-.687.1-1.364.406-.007.002-.014.003-.02.006-.267.122-.541.268-.821.435l-.042.025-.191.119-.123.079-.084.056c-.07.047-.141.095-.213.146-.003.002-.005.004-.008.004l-.24.173-.017.014c-.194.144-.396.3-.605.475-1.038.86-1.703 1.206-2.237 1.482-.628.325-1.081.56-1.6 1.369-.146.23-.276.609-.39 1.082.212.174.427.343.646.508.11-.553.235-.973.373-1.187.41-.641.73-.808 1.314-1.11.525-.271 1.24-.643 2.305-1.517.86 2.22 2.71 4.765 6.69 5.344.356.052.705.076 1.046.076 4.222 0 7.32-3.756 8.944-6.32.377.219.73.407 1.022.535.256.112.525.22.81.336 1.24.5 2.645 1.067 3.013 1.988l.034.086c.19-.19.375-.382.557-.58-.575-1.076-2.03-1.664-3.324-2.185z" stroke="#33475C" stroke-width="5" stroke-linecap="round" stroke-linejoin="round"/>
            <path d="M75.727 20.035c.02-.348.032-.709.032-1.084 0-7.244-2.701-10.186-6.28-10.186-3.157 0-7.015 1.59-7.015 10.823 0 7.784 5.514 8.694 6.72 8.694 1.382 0 3.254-.643 4.648-2.45" stroke="#33475C" stroke-width="5" stroke-linecap="round" stroke-linejoin="round"/>
            <path d="M69.184 28.654c-.216 0-2.175-.042-4.041-1.507-2.026-1.588-3.051-4.133-3.051-7.558 0-7.43 2.486-11.196 7.388-11.196 1.996 0 3.653.877 4.788 2.538 1.237 1.807 1.864 4.505 1.864 8.02 0 .377-.01.75-.032 1.106-.013.206-.194.36-.395.35-.206-.013-.362-.19-.35-.395.02-.342.031-.7.031-1.06 0-6.329-2.097-9.814-5.906-9.814-1.895 0-3.338.596-4.412 1.822-1.48 1.69-2.23 4.592-2.23 8.628 0 8.226 6.283 8.321 6.346 8.321.605 0 2.704-.166 4.353-2.306.125-.163.358-.193.522-.068.163.126.194.36.067.523-1.252 1.625-3.099 2.596-4.942 2.596z" stroke="#33475C" stroke-width="5" stroke-linecap="round" stroke-linejoin="round"/>
            <path d="M63.841 16.18c-.199-.49.017-.813.407-1.075.895-.598 2.244-.406 2.954.43.424.499.643 1.082.723 1.734.146 1.178.111 2.349-.068 3.518-.028.187-.046.374-.068.562-.037.309.07.5.407.523.116.008.238.022.343.067.176.074.191.305.016.386-.3.137-.622.24-.949.073-.303-.156-.446-.424-.434-.752.015-.423.057-.845.103-1.266.117-1.083.13-2.165-.075-3.236-.202-1.062-.889-1.65-1.827-1.61-.34.013-.639.132-.924.313-.192.12-.339.332-.608.333zM71.44 14.788c-.73.121-1.387.304-1.66 1.165.264.122.42-.028.568-.115.928-.539 1.83-.527 2.725.075.137.092.288.161.435.234.125.062.26.15.387.016.13-.135.026-.258-.044-.378 0 0-.198-.273-.932-.684-.712-.397-1.434-.319-1.48-.313z" stroke="#33475C" stroke-width="5" stroke-linecap="round" stroke-linejoin="round"/>
            <path d="M68.826 13.387c1.772-.02 3.633.023 5.18.888.367.205.718.463.938.82.055.09.099.185.137.282.09 2.689-1.444 5.69-3.077 7.774-1.338-.457-2.978-.53-4.391-.578l-.593-.021c-1.09.033-1.894.147-2.886.737-.74-1.02-1.238-3.096-1.445-4.454-.078-.443-.132-.903-.124-1.572-.107 1.05-.27 2.503-.253 3.32.032 1.637.067 2.33.745 3.822.677 1.49 2.747 3.547 4.31 4.424.517.312 1.08.537 1.669.472.443-.05.845-.258 1.225-.5 0 0 4.53-2.774 4.746-4.841.032-.307.052-.628.066-.946.02-.123.036-.247.046-.372.04-.512-.002-1.03.082-1.535.085-.506.328-1.022.78-1.264l.059 1.437c.532 1.705.209-.82.375-.8.412.05.744-.832.884-.441.34-1.835 1.169-3.547 1.578-5.367.408-1.821.312-3.927-.962-5.29-.626-.671-1.47-1.091-2.307-1.468-.102-.047-.205-.091-.308-.136-2.196-1.64-5.15-2.094-7.906-1.844-1.19.107-2.392.34-3.43.932-1.036.59-1.894 1.585-2.087 2.764-.101-.635-.127-1.282-.076-1.924-.637 1.132-1.014 2.429-.944 3.726.068 1.23 1.164 1.912 2.048 2.768l.118.11.093-.057c1.55-.55 1.788-.583 2.935-.723.753-.093 2.017-.134 2.775-.143z" stroke="#33475C" stroke-width="5" stroke-linecap="round" stroke-linejoin="round"/>
            <path d="M68.826 13.387zm-1.29 15.11l.023.013c.553.334 1.01.467 1.436.42.394-.043.76-.248 1.066-.443l.017-.01c1.226-.754 4.397-3.018 4.558-4.556.028-.268.049-.57.065-.924 0-.013.002-.028.004-.042.02-.128.034-.24.042-.342.016-.191.018-.382.02-.584.006-.32.01-.65.067-.984.118-.705.47-1.263.97-1.531.113-.061.25-.06.36.005.113.063.183.18.189.308l.012.284c.024-.003.049-.004.074-.002.06-.028.178-.156.236-.22.092-.1.199-.216.33-.278.194-.885.487-1.745.77-2.578.273-.796.553-1.62.738-2.443.219-.974.57-3.41-.87-4.954-.59-.631-1.404-1.028-2.19-1.382l-.302-.136c-.027-.01-.051-.025-.074-.043-1.9-1.417-4.615-2.045-7.65-1.77-1.4.127-2.441.408-3.278.885-1.032.588-1.744 1.522-1.904 2.5-.03.18-.185.313-.368.313h-.001c-.182-.001-.338-.134-.367-.314-.014-.087-.026-.173-.037-.26-.195.666-.277 1.335-.242 1.982.045.83.663 1.379 1.379 2.014.16.143.325.289.485.44 1.473-.518 1.758-.564 2.912-.706.808-.098 2.15-.137 2.816-.144 1.832-.02 3.755.035 5.366.934.5.28.852.59 1.074.952.06.099.115.21.166.34.016.039.024.08.025.124.03.896-.106 4.125-3.156 8.015-.097.125-.264.174-.414.123-1.234-.422-2.73-.505-4.283-.557l-.581-.021c-1.082.034-1.797.15-2.694.685-.166.098-.38.054-.493-.102-.524-.724-.9-1.852-1.145-2.823.032 1.556.087 2.197.709 3.565.613 1.348 2.583 3.368 4.14 4.247zm1.296 1.188c-.513 0-1.054-.174-1.646-.53h-.002c-1.701-.955-3.788-3.103-4.467-4.596-.704-1.55-.745-2.292-.778-3.97-.014-.755.116-2.015.22-3.03l.036-.334c.02-.198.195-.347.39-.334.2.01.355.177.353.376-.008.685.052 1.128.118 1.503.195 1.278.618 3.017 1.2 4.023.899-.468 1.685-.581 2.753-.613h.024l.593.02c1.509.052 2.97.132 4.242.515 1.836-2.415 2.892-5.107 2.842-7.26-.027-.062-.054-.116-.084-.164-.155-.253-.41-.472-.801-.691-1.452-.811-3.191-.86-4.995-.84-.65.007-1.958.045-2.733.14-1.111.135-1.318.16-2.82.692l-.058.036c-.143.089-.328.07-.451-.045l-.118-.11c-.175-.17-.358-.332-.536-.49-.77-.683-1.567-1.39-1.63-2.532-.07-1.292.274-2.65.992-3.927.086-.153.267-.225.433-.174.168.05.277.212.264.386-.008.09-.013.183-.017.275.399-.58.956-1.09 1.625-1.47.932-.53 2.069-.841 3.58-.978 3.199-.291 6.083.38 8.127 1.889.09.04.182.08.273.123.854.384 1.744.82 2.427 1.552 1.186 1.27 1.569 3.322 1.053 5.626-.194.863-.481 1.705-.76 2.52-.313.922-.638 1.875-.815 2.834-.031.166-.17.29-.337.303-.04.003-.077 0-.113-.007-.12.13-.28.3-.481.39-.002.108 0 .24 0 .342.009.65.015 1.043-.372 1.105-.393.06-.532-.38-.678-.85-.01-.03-.016-.062-.017-.095l-.02-.447c-.042.128-.066.243-.08.32-.045.279-.05.567-.054.872-.003.205-.006.417-.023.63-.01.117-.025.242-.046.38-.016.36-.038.67-.067.948-.101.958-.971 2.118-2.59 3.446-1.165.958-2.285 1.647-2.333 1.675l-.006.004c-.355.226-.83.49-1.373.549-.08.009-.162.013-.244.013z" stroke="#33475C" stroke-width="5" stroke-linecap="round" stroke-linejoin="round"/>
            <path d="M75.248 20.33c-.084.505-.089 1.8-.13 2.312-.01.125-.026.25-.046.372-.013.318-.034.638-.066.946l.257 1.426s.107-1.232.496-2.02c.39-.79.972-.94 1.318-1.373.346-.433.54-.973.4-1.567s-.68-.95-1.243-.875c-.562.076-.827.508-.986.78" stroke="#33475C" stroke-width="5" stroke-linecap="round" stroke-linejoin="round"/>
            <path d="M75.444 23.05l-.006.123c.283-.558.655-.84.955-1.066.158-.12.294-.223.393-.347.22-.274.454-.713.328-1.248-.093-.395-.442-.646-.83-.592-.338.046-.519.276-.678.537-.042.319-.062.909-.079 1.39-.012.337-.02.628-.037.824-.009.116-.025.24-.046.38zm-.18 2.708c-.18 0-.335-.128-.367-.306l-.258-1.426c-.006-.035-.007-.07-.004-.105.028-.268.05-.57.065-.924l.004-.042c.021-.128.034-.24.043-.342.014-.181.024-.477.035-.791.02-.567.041-1.21.1-1.553.006-.045.022-.09.045-.128.163-.278.504-.858 1.258-.96.762-.103 1.474.396 1.655 1.159.154.655-.008 1.307-.472 1.886-.156.196-.344.338-.526.475-.279.21-.543.412-.749.829-.353.715-.457 1.876-.458 1.888-.016.186-.168.33-.355.34h-.017zM65.431 19.124c-.374 0-.755-.185-1-.485-.21-.259-.298-.555-.367-.792-.057-.199.056-.406.255-.463.197-.058.404.056.462.254.057.2.112.388.227.53.083.1.242.216.434.21.181-.005.337-.124.41-.24.095-.154.12-.353.146-.564.025-.204.211-.349.416-.323.204.025.35.212.324.416-.033.256-.072.573-.255.866-.22.354-.612.58-1.022.59l-.03.001zM71.688 19.128c-.028 0-.057 0-.084-.003-.384-.027-.759-.25-.979-.584-.184-.277-.24-.58-.287-.824-.037-.202.096-.397.298-.435.202-.038.398.096.435.298.04.204.075.398.176.55.071.107.221.238.41.252.181.013.347-.09.431-.199.11-.143.155-.339.202-.546.045-.2.245-.327.445-.28.201.044.327.244.282.445-.057.251-.128.563-.339.837-.237.306-.61.49-.99.49zM68.34 24.33c-.304-.115-.647.064-.863.308-.187.212-.316.517-.2.775.077.172.252.285.435.331.283.071.6-.008.817-.204.217-.195.327-.503.285-.792-.01-.07-.03-.144-.07-.203-.076-.114-.212-.17-.34-.22" stroke="#33475C" stroke-width="5" stroke-linecap="round" stroke-linejoin="round"/>
            <path d="M89.011 22.058c0 10.8-8.756 19.558-19.558 19.558-10.8 0-19.557-8.757-19.557-19.558 0-10.802 8.756-19.558 19.557-19.558 10.802 0 19.558 8.756 19.558 19.558z" stroke="#33475C" stroke-width="5" stroke-linecap="round" stroke-linejoin="round"/>
            <path d="M89.011 22.058c0 10.8-8.756 19.558-19.558 19.558-10.8 0-19.557-8.757-19.557-19.558 0-10.802 8.756-19.558 19.557-19.558 10.802 0 19.558 8.756 19.558 19.558" fill="#EBF0F7"/>
            <path d="M79.541 33.168c-1.427-.625-4.429-2.774-4.429-2.774-.292-4.138.647-7.234.647-7.234l-9.92 3.977s.173 4.062-.703 4.538c0 0-1.339-.034-3.619 1.858-2.28 1.894-2.887 1.403-3.76 2.767-.147.228-.274.63-.385 1.138 3.325 2.616 7.521 4.177 12.081 4.177 5.53 0 10.522-2.296 14.08-5.984-.56-1.253-2.59-1.849-3.992-2.463" fill="#E4EBF3"/>
            <path d="M79.541 33.168c-.357-.156-.813-.409-1.296-.698-1.683 2.754-5.113 7.064-9.812 6.38-4.139-.603-5.858-3.447-6.57-5.594-.114.088-.228.18-.346.277-2.28 1.894-2.887 1.402-3.76 2.767-.147.228-.274.63-.385 1.138 3.325 2.616 7.521 4.177 12.081 4.177 5.53 0 10.522-2.296 14.08-5.984-.56-1.253-2.59-1.849-3.992-2.463" fill="#FFF"/>
            <path d="M80.481 33.154c-.28-.113-.545-.22-.79-.328-.312-.136-.733-.363-1.254-.677-.176-.105-.403-.05-.51.125-1.588 2.601-4.926 6.862-9.44 6.207-3.906-.569-5.566-3.22-6.27-5.343-.039-.115-.13-.204-.246-.239-.116-.035-.242-.012-.337.063-.116.09-.234.184-.355.285-1.039.861-1.704 1.206-2.238 1.482-.627.325-1.08.561-1.599 1.37-.147.23-.276.608-.39 1.081.212.174.427.343.646.508.111-.553.235-.972.372-1.187.411-.64.731-.808 1.314-1.11.526-.27 1.241-.642 2.305-1.516.86 2.22 2.711 4.764 6.69 5.343.356.052.705.077 1.047.077 4.221 0 7.32-3.756 8.943-6.32.407.236.75.414 1.022.533.256.113.526.222.811.337 1.24.5 2.644 1.067 3.012 1.988.012.027.023.057.034.087.191-.19.376-.383.558-.579-.575-1.078-2.03-1.666-3.325-2.187" fill="#CBD6E5"/>
            <path d="M61.863 33.256c.712 2.147 2.432 4.991 6.57 5.594 4.7.684 8.13-3.626 9.812-6.38-.673-.404-1.398-.882-1.98-1.277 0 0-3.208 5.15-7.08 5.193-3.874.044-5.408-4.324-5.408-4.324-.51.231-1.154.602-1.914 1.194" fill="#FFF"/>
            <path d="M62.304 33.389c.75 2.076 2.429 4.546 6.183 5.093 4.335.63 7.586-3.277 9.243-5.89-.411-.255-.867-.55-1.362-.88-.323.47-1 1.392-1.926 2.324-1.778 1.788-3.545 2.705-5.253 2.723h-.06c-1.68 0-3.196-.79-4.392-2.286-.588-.736-.961-1.47-1.154-1.901-.41.214-.84.489-1.28.817m7.124 5.906c-.342 0-.691-.024-1.047-.076-4.283-.623-6.1-3.522-6.87-5.846-.05-.15 0-.314.125-.411.688-.536 1.357-.953 1.988-1.24.095-.043.204-.044.3-.003.096.04.17.12.206.219.014.04 1.483 4.076 5 4.076h.05c3.629-.041 6.739-4.97 6.77-5.02.053-.084.14-.145.239-.166.099-.02.202-.001.286.056.743.504 1.403.93 1.964 1.266.085.052.146.135.17.23.024.097.008.199-.044.284-1.562 2.558-4.742 6.63-9.137 6.63" fill="#CF46D3"/>
            <path d="M68.487 38.482c-3.754-.547-5.433-3.017-6.183-5.093.103-.077.205-.15.307-.22.012-.01.023-.017.035-.025.09-.062.179-.121.268-.18l.075-.047c.076-.047.15-.093.225-.137l.106-.062c.063-.037.125-.071.188-.104.025-.014.05-.028.076-.04.192.43.566 1.164 1.153 1.899 1.196 1.497 2.713 2.287 4.392 2.286h.06c1.708-.018 3.475-.935 5.253-2.722.927-.933 1.602-1.853 1.926-2.325.424.284.896.593 1.362.88-1.658 2.614-4.908 6.52-9.243 5.89m-3.36-6.434c.066.004.13-.013.187-.045.313-.17.744-.64.875-2.752.047-.764.04-1.49.03-1.865l8.998-3.606c-.263 1.163-.69 3.617-.476 6.64.008.11.065.212.155.277.04.028.374.266.854.597-.74 1.07-3.464 4.685-6.57 4.72h-.051c-2.923 0-4.43-2.785-4.865-3.75.556-.211.859-.216.863-.216m15.355 1.107c-.281-.113-.545-.22-.791-.328-.342-.15-.783-.394-1.252-.676l-.001-.001-.207-.125-.018-.011-.19-.118-.034-.02-.174-.111-.126-.08-.038-.024c-.351-.224-.695-.452-1.008-.662l-.073-.05c-.491-.331-.894-.613-1.097-.757-.245-3.927.634-6.894.643-6.924.042-.137 0-.285-.105-.383-.106-.096-.257-.124-.39-.071L65.7 26.79c-.147.059-.24.204-.234.362.083 1.946-.13 3.819-.46 4.157-.218.02-.687.1-1.364.406-.007.002-.014.003-.02.006-.267.122-.541.268-.821.435l-.042.025-.191.119-.123.079-.084.056c-.07.047-.141.095-.213.146-.003.002-.005.004-.008.004l-.24.173-.017.014c-.194.144-.396.3-.605.475-1.038.86-1.703 1.206-2.237 1.482-.628.325-1.081.56-1.6 1.369-.146.23-.276.609-.39 1.082.212.174.427.343.646.508.11-.553.235-.973.373-1.187.41-.641.73-.808 1.314-1.11.525-.271 1.24-.643 2.305-1.517.86 2.22 2.71 4.765 6.69 5.344.356.052.705.076 1.046.076 4.222 0 7.32-3.756 8.944-6.32.377.219.73.407 1.022.535.256.112.525.22.81.336 1.24.5 2.645 1.067 3.013 1.988l.034.086c.19-.19.375-.382.557-.58-.575-1.076-2.03-1.664-3.324-2.185" fill="#98ACC3"/>
            <path d="M75.727 20.035c.02-.348.032-.709.032-1.084 0-7.244-2.701-10.186-6.28-10.186-3.157 0-7.015 1.59-7.015 10.823 0 7.784 5.514 8.694 6.72 8.694 1.382 0 3.254-.643 4.648-2.45" fill="#E4EBF3"/>
            <path d="M69.184 28.654c-.216 0-2.175-.042-4.041-1.507-2.026-1.588-3.051-4.133-3.051-7.558 0-7.43 2.486-11.196 7.388-11.196 1.996 0 3.653.877 4.788 2.538 1.237 1.807 1.864 4.505 1.864 8.02 0 .377-.01.75-.032 1.106-.013.206-.194.36-.395.35-.206-.013-.362-.19-.35-.395.02-.342.031-.7.031-1.06 0-6.329-2.097-9.814-5.906-9.814-1.895 0-3.338.596-4.412 1.822-1.48 1.69-2.23 4.592-2.23 8.628 0 8.226 6.283 8.321 6.346 8.321.605 0 2.704-.166 4.353-2.306.125-.163.358-.193.522-.068.163.126.194.36.067.523-1.252 1.625-3.099 2.596-4.942 2.596" fill="#98ACC3"/>
            <path d="M63.841 16.18c-.199-.49.017-.813.407-1.075.895-.598 2.244-.406 2.954.43.424.499.643 1.082.723 1.734.146 1.178.111 2.349-.068 3.518-.028.187-.046.374-.068.562-.037.309.07.5.407.523.116.008.238.022.343.067.176.074.191.305.016.386-.3.137-.622.24-.949.073-.303-.156-.446-.424-.434-.752.015-.423.057-.845.103-1.266.117-1.083.13-2.165-.075-3.236-.202-1.062-.889-1.65-1.827-1.61-.34.013-.639.132-.924.313-.192.12-.339.332-.608.333M71.44 14.788c-.73.121-1.387.304-1.66 1.165.264.122.42-.028.568-.115.928-.539 1.83-.527 2.725.075.137.092.288.161.435.234.125.062.26.15.387.016.13-.135.026-.258-.044-.378 0 0-.198-.273-.932-.684-.712-.397-1.434-.319-1.48-.313" fill="#98ACC3"/>
            <path d="M68.826 13.387c1.772-.02 3.633.023 5.18.888.367.205.718.463.938.82.055.09.099.185.137.282.09 2.689-1.444 5.69-3.077 7.774-1.338-.457-2.978-.53-4.391-.578l-.593-.021c-1.09.033-1.894.147-2.886.737-.74-1.02-1.238-3.096-1.445-4.454-.078-.443-.132-.903-.124-1.572-.107 1.05-.27 2.503-.253 3.32.032 1.637.067 2.33.745 3.822.677 1.49 2.747 3.547 4.31 4.424.517.312 1.08.537 1.669.472.443-.05.845-.258 1.225-.5 0 0 4.53-2.774 4.746-4.841.032-.307.052-.628.066-.946.02-.123.036-.247.046-.372.04-.512-.002-1.03.082-1.535.085-.506.328-1.022.78-1.264l.059 1.437c.532 1.705.209-.82.375-.8.412.05.744-.832.884-.441.34-1.835 1.169-3.547 1.578-5.367.408-1.821.312-3.927-.962-5.29-.626-.671-1.47-1.091-2.307-1.468-.102-.047-.205-.091-.308-.136-2.196-1.64-5.15-2.094-7.906-1.844-1.19.107-2.392.34-3.43.932-1.036.59-1.894 1.585-2.087 2.764-.101-.635-.127-1.282-.076-1.924-.637 1.132-1.014 2.429-.944 3.726.068 1.23 1.164 1.912 2.048 2.768l.118.11.093-.057c1.55-.55 1.788-.583 2.935-.723.753-.093 2.017-.134 2.775-.143" fill="#CBD6E3"/>
            <path d="M68.826 13.387c1.772-.02 3.633.023 5.18.888.367.205.718.463.938.82.055.09.099.185.137.282.09 2.689-1.444 5.69-3.077 7.774-1.338-.457-2.978-.53-4.391-.578l-.593-.021c-1.09.033-1.894.147-2.886.737-.74-1.02-1.238-3.096-1.445-4.454-.078-.443-.132-.903-.124-1.572-.107 1.05-.27 2.503-.253 3.32.032 1.637.067 2.33.745 3.822.677 1.49 2.747 3.547 4.31 4.424.517.312 1.08.537 1.669.472.443-.05.845-.258 1.225-.5 0 0 4.53-2.774 4.746-4.841.032-.307.052-.628.066-.946.02-.123.036-.247.046-.372.04-.512-.002-1.03.082-1.535.085-.506.328-1.022.78-1.264l.059 1.437c.532 1.705.209-.82.375-.8.412.05.744-.832.884-.441.34-1.835 1.169-3.547 1.578-5.367.408-1.821.312-3.927-.962-5.29-.626-.671-1.47-1.091-2.307-1.468-.102-.047-.205-.091-.308-.136-2.196-1.64-5.15-2.094-7.906-1.844-1.19.107-2.392.34-3.43.932-1.036.59-1.894 1.585-2.087 2.764-.101-.635-.127-1.282-.076-1.924-.637 1.132-1.014 2.429-.944 3.726.068 1.23 1.164 1.912 2.048 2.768l.118.11.093-.057c1.55-.55 1.788-.583 2.935-.723.753-.093 2.017-.134 2.775-.143z" stroke="#98ACC3" stroke-linecap="round" stroke-linejoin="round"/>
            <path d="M68.826 13.387zm-1.29 15.11l.023.013c.553.334 1.01.467 1.436.42.394-.043.76-.248 1.066-.443l.017-.01c1.226-.754 4.397-3.018 4.558-4.556.028-.268.049-.57.065-.924 0-.013.002-.028.004-.042.02-.128.034-.24.042-.342.016-.191.018-.382.02-.584.006-.32.01-.65.067-.984.118-.705.47-1.263.97-1.531.113-.061.25-.06.36.005.113.063.183.18.189.308l.012.284c.024-.003.049-.004.074-.002.06-.028.178-.156.236-.22.092-.1.199-.216.33-.278.194-.885.487-1.745.77-2.578.273-.796.553-1.62.738-2.443.219-.974.57-3.41-.87-4.954-.59-.631-1.404-1.028-2.19-1.382l-.302-.136c-.027-.01-.051-.025-.074-.043-1.9-1.417-4.615-2.045-7.65-1.77-1.4.127-2.441.408-3.278.885-1.032.588-1.744 1.522-1.904 2.5-.03.18-.185.313-.368.313h-.001c-.182-.001-.338-.134-.367-.314-.014-.087-.026-.173-.037-.26-.195.666-.277 1.335-.242 1.982.045.83.663 1.379 1.379 2.014.16.143.325.289.485.44 1.473-.518 1.758-.564 2.912-.706.808-.098 2.15-.137 2.816-.144 1.832-.02 3.755.035 5.366.934.5.28.852.59 1.074.952.06.099.115.21.166.34.016.039.024.08.025.124.03.896-.106 4.125-3.156 8.015-.097.125-.264.174-.414.123-1.234-.422-2.73-.505-4.283-.557l-.581-.021c-1.082.034-1.797.15-2.694.685-.166.098-.38.054-.493-.102-.524-.724-.9-1.852-1.145-2.823.032 1.556.087 2.197.709 3.565.613 1.348 2.583 3.368 4.14 4.247zm1.296 1.188c-.513 0-1.054-.174-1.646-.53h-.002c-1.701-.955-3.788-3.103-4.467-4.596-.704-1.55-.745-2.292-.778-3.97-.014-.755.116-2.015.22-3.03l.036-.334c.02-.198.195-.347.39-.334.2.01.355.177.353.376-.008.685.052 1.128.118 1.503.195 1.278.618 3.017 1.2 4.023.899-.468 1.685-.581 2.753-.613h.024l.593.02c1.509.052 2.97.132 4.242.515 1.836-2.415 2.892-5.107 2.842-7.26-.027-.062-.054-.116-.084-.164-.155-.253-.41-.472-.801-.691-1.452-.811-3.191-.86-4.995-.84-.65.007-1.958.045-2.733.14-1.111.135-1.318.16-2.82.692l-.058.036c-.143.089-.328.07-.451-.045l-.118-.11c-.175-.17-.358-.332-.536-.49-.77-.683-1.567-1.39-1.63-2.532-.07-1.292.274-2.65.992-3.927.086-.153.267-.225.433-.174.168.05.277.212.264.386-.008.09-.013.183-.017.275.399-.58.956-1.09 1.625-1.47.932-.53 2.069-.841 3.58-.978 3.199-.291 6.083.38 8.127 1.889.09.04.182.08.273.123.854.384 1.744.82 2.427 1.552 1.186 1.27 1.569 3.322 1.053 5.626-.194.863-.481 1.705-.76 2.52-.313.922-.638 1.875-.815 2.834-.031.166-.17.29-.337.303-.04.003-.077 0-.113-.007-.12.13-.28.3-.481.39-.002.108 0 .24 0 .342.009.65.015 1.043-.372 1.105-.393.06-.532-.38-.678-.85-.01-.03-.016-.062-.017-.095l-.02-.447c-.042.128-.066.243-.08.32-.045.279-.05.567-.054.872-.003.205-.006.417-.023.63-.01.117-.025.242-.046.38-.016.36-.038.67-.067.948-.101.958-.971 2.118-2.59 3.446-1.165.958-2.285 1.647-2.333 1.675l-.006.004c-.355.226-.83.49-1.373.549-.08.009-.162.013-.244.013z" fill="#98ACC3"/>
            <path d="M75.248 20.33c-.084.505-.089 1.8-.13 2.312-.01.125-.026.25-.046.372-.013.318-.034.638-.066.946l.257 1.426s.107-1.232.496-2.02c.39-.79.972-.94 1.318-1.373.346-.433.54-.973.4-1.567s-.68-.95-1.243-.875c-.562.076-.827.508-.986.78" fill="#EBF0F7"/>
            <path d="M75.444 23.05l-.006.123c.283-.558.655-.84.955-1.066.158-.12.294-.223.393-.347.22-.274.454-.713.328-1.248-.093-.395-.442-.646-.83-.592-.338.046-.519.276-.678.537-.042.319-.062.909-.079 1.39-.012.337-.02.628-.037.824-.009.116-.025.24-.046.38zm-.18 2.708c-.18 0-.335-.128-.367-.306l-.258-1.426c-.006-.035-.007-.07-.004-.105.028-.268.05-.57.065-.924l.004-.042c.021-.128.034-.24.043-.342.014-.181.024-.477.035-.791.02-.567.041-1.21.1-1.553.006-.045.022-.09.045-.128.163-.278.504-.858 1.258-.96.762-.103 1.474.396 1.655 1.159.154.655-.008 1.307-.472 1.886-.156.196-.344.338-.526.475-.279.21-.543.412-.749.829-.353.715-.457 1.876-.458 1.888-.016.186-.168.33-.355.34h-.017zM65.431 19.124c-.374 0-.755-.185-1-.485-.21-.259-.298-.555-.367-.792-.057-.199.056-.406.255-.463.197-.058.404.056.462.254.057.2.112.388.227.53.083.1.242.216.434.21.181-.005.337-.124.41-.24.095-.154.12-.353.146-.564.025-.204.211-.349.416-.323.204.025.35.212.324.416-.033.256-.072.573-.255.866-.22.354-.612.58-1.022.59l-.03.001M71.688 19.128c-.028 0-.057 0-.084-.003-.384-.027-.759-.25-.979-.584-.184-.277-.24-.58-.287-.824-.037-.202.096-.397.298-.435.202-.038.398.096.435.298.04.204.075.398.176.55.071.107.221.238.41.252.181.013.347-.09.431-.199.11-.143.155-.339.202-.546.045-.2.245-.327.445-.28.201.044.327.244.282.445-.057.251-.128.563-.339.837-.237.306-.61.49-.99.49M68.34 24.33c-.304-.115-.647.064-.863.308-.187.212-.316.517-.2.775.077.172.252.285.435.331.283.071.6-.008.817-.204.217-.195.327-.503.285-.792-.01-.07-.03-.144-.07-.203-.076-.114-.212-.17-.34-.22" fill="#98ACC3"/>
            <path d="M89.011 22.058c0 10.8-8.756 19.558-19.558 19.558-10.8 0-19.557-8.757-19.557-19.558 0-10.802 8.756-19.558 19.557-19.558 10.802 0 19.558 8.756 19.558 19.558z" stroke="#33475C" stroke-linecap="round" stroke-linejoin="round"/>
        </g>
    </g>
</svg>
