<svg width="100" height="100" viewBox="0 0 100 100" xmlns="http://www.w3.org/2000/svg" xmlns:xlink="http://www.w3.org/1999/xlink">
    <defs>
        <path id="a" d="M0 .114h99.556V99.67H0z"/>
        <path id="c" d="M0 .114h99.556V99.67H0z"/>
        <path id="e" d="M0 .114h99.556V99.67H0z"/>
    </defs>
    <g fill="none" fill-rule="evenodd">
        <g transform="translate(0 .216)">
            <mask id="b" fill="#fff">
                <use xlink:href="#a"/>
            </mask>
            <path d="M99.556 49.892c0 27.492-22.287 49.778-49.778 49.778C22.286 99.67 0 77.384 0 49.892 0 22.4 22.286.114 49.778.114 77.27.114 99.556 22.4 99.556 49.892" fill="#B4BAEA" mask="url(#b)"/>
        </g>
        <g transform="translate(0 .216)">
            <mask id="d" fill="#fff">
                <use xlink:href="#c"/>
            </mask>
            <path d="M99.556 49.892c0 27.492-22.287 49.778-49.778 49.778C22.286 99.67 0 77.384 0 49.892 0 22.4 22.286.114 49.778.114 77.27.114 99.556 22.4 99.556 49.892" fill="#B4BAEA" mask="url(#d)"/>
        </g>
        <g transform="translate(0 .216)">
            <mask id="f" fill="#fff">
                <use xlink:href="#e"/>
            </mask>
            <path d="M99.556 49.892c0 27.492-22.287 49.778-49.778 49.778C22.286 99.67 0 77.384 0 49.892 0 22.4 22.286.114 49.778.114 77.27.114 99.556 22.4 99.556 49.892" fill="#B4BAEA" mask="url(#f)"/>
        </g>
        <path d="M70.173 83.802c-4.881 1.502-9.85 2.58-14.923 3.118l-.016.02c-4.107.702-14.195.176-14.467.162H40.754c-.311-.014-.622-.032-.932-.058-5.08-.42-10.157-.867-14.976-2.725-.427-.164-.857-.32-1.28-.495-.156-.064-.295-.169-.516-.298.182-.569.746-.633 1.147-.854 2.305-1.27 4.637-2.492 6.935-3.775 2.103-1.175 4.145-2.456 5.796-4.244 1.853-1.961 1.903-2.977 1.903-2.977.08-1.817.07-3.635-.311-5.563l-.183-.892c.6.356 1.205.713 1.823 1.056 1.424.788 2.917 1.384 4.589 1.145 4.487-.642 8.214-2.77 11.376-5.944.403-.404.636-.977.949-1.47l-.463-.43c-.573.42-1.175.808-1.715 1.268-2.604 2.22-5.41 4.017-8.809 4.825-1.86.442-3.503.163-5.123-.739-2.37-1.319-4.502-2.96-6.486-4.794-2.79-2.58-4.474-5.77-5.153-9.504-1.058-5.823-.814-11.646-.037-17.472.5-3.746 1.694-7.252 3.728-10.444 1.116-1.753 2.41-3.365 4.319-4.334 1.401-.711 2.631-.52 3.768.552 2.294 2.165 4.61 4.308 6.858 6.52 1.264 1.244 2.461 2.566 3.589 3.935.59.717.962 1.612 1.51 2.56-3.73-.31-5.167.278-5.34 2.112.683-.18 1.341-.355 2-.525 2.35-.605 4.726.435 5.708 2.628 1.356 3.03 2.61 6.104 3.933 9.148.158.363.476.656.986 1.339.203-.861.284-1.276.4-1.681.22-.78 1.2-1.56 1.9-1.462.86.122 1.315.767 1.411 1.529.1.78.055 1.607-.092 2.383-.34 1.799-1.285 3.302-2.557 4.593-1.217 1.234-1.844 2.674-2.167 4.21h-.002l-.006.038c-.102.49-.173.99-.221 1.495-.077.556-.16 1.211-.23 1.874l-.113 1.553c-.169 1.847-.323 3.372-.444 4.9-.125 1.598-.258 3.212-.03 4.798 0 0 .805 2.427 1.758 2.975 4.341 2.444 8.734 4.797 12.99 7.388.326.198.764.3.883.855-1.085.818-2.362 1.304-3.654 1.701" fill="#FFE3DC"/>
        <path d="M75.6 28.68c-.587-2.376-1.243-4.465-2.007-6.387-.434-1.092-1.192-2.05-1.925-2.977l-.186-.235c-.513-.65-1.274-1.367-2.617-1.148-.107.017-.197.088-.239.188-.043.1-.031.212.03.303 2.771 4.012 4.375 8.393 4.902 13.395.01.103.071.194.16.242.047.026.1.04.154.04.047 0 .095-.01.14-.032 1.434-.708 1.968-1.848 1.588-3.39" fill="#F6C364"/>
        <path d="M74.507 15.92c-.827-.967-1.9-1.883-3.28-2.8-1.458-.972-3.165-.65-4.15.784-.31.45-.55 1.166-.407 1.662.221.774.934 1.236 1.77 1.146 1.966-.207 3.29.933 4.325 2.075.45.498.827 1.06 1.103 1.495 1.452 2.277 2.105 4.791 2.64 7.866.453 2.613-.368 4.306-2.514 5.175-.05.02-.085.065-.096.118-.313 1.668-.184 2.944.42 4.137.476.942.963 1.424 1.533 1.519.065.01.131.016.198.016.504 0 1.061-.305 1.698-.926 1.464-1.43 2.266-3.217 2.382-5.311.36-6.466-1.532-12.17-5.622-16.956" fill="#E8824A"/>
        <path d="M51.042 9.345c-1.43-.178-2.636-.058-3.796.378-1.172.441-2.398.75-3.443.995-2.13.5-4.304.981-6.405 1.447-.771.17-1.542.342-2.313.514-2.16.482-3.859 1.652-5.196 3.58-2.602 3.75-4.396 8.105-5.817 14.119-.644 2.724-.865 5.647-.677 8.935.209 3.658 2.112 6.563 3.88 9 .035.048.096.074.154.062.059-.01.107-.052.125-.11.107-.348.085-.648.063-.938l-.157.007.157-.01c-.458-6.31-.044-12.052 1.264-17.553 1.083-4.553 2.994-8.163 5.844-11.036 1.157-1.167 2.502-1.885 4.231-2.26 1.152-.247 1.92-.03 2.737.78.996.988 1.995 1.972 2.994 2.958 1.868 1.841 3.8 3.745 5.68 5.637.77.775 1.509 1.654 2.195 2.61 2.74 3.812 5.082 8.33 7.16 13.81.092.242.196.478.31.736l.171.393c.018.042.053.074.096.088.044.014.091.009.13-.015l.67-.401c.878-.524 1.76-.656 2.483-.374.692.272 1.2.895 1.47 1.805.246.83.295 1.851.136 2.8-.152.912-.435 1.81-.734 2.762-.135.428-.273.867-.405 1.325-.018.063.005.131.058.17.028.02.06.031.094.031.03 0 .06-.008.086-.025 3.57-2.323 6.123-5.884 7.19-10.027.77-2.992 1.035-6.134.808-9.606-.748-11.461-9.88-21.172-21.243-22.587" fill="#E8824A"/>
        <path d="M43.815 50.892c-.79.818-1.72 1.134-2.753 1.031-1.027-.102-1.63-.946-1.552-2.118.063-.971.323-1.935.324-2.903.001-2.573 0-5.151-.176-7.716-.121-1.759-.902-3.294-2.313-4.461-1.624-1.343-3.408-1.524-5.263-.482-.48.27-.965.533-1.722.95.336-1.566 1.207-2.22 2.311-2.577 1.803-.584 3.518-.365 5.044.823 1.598 1.245 2.672 2.836 2.997 4.858.505 3.132.502 6.277.157 9.426-.069.627-.187 1.253-.186 1.88.002.93.347 1.19 1.29 1.169.574-.013 1.177-.56 1.842.12M48.614 54.765c-2.776 3.555-10.076 3.463-11.725-.193 1.357.514 2.54 1.146 3.796 1.385 1.263.24 2.625.257 3.896.06 1.31-.2 2.561-.777 4.033-1.252" fill="#33475C"/>
        <path d="M37.28 37.766c-.079-.14-.163-.277-.258-.405-.664-.896-1.483-.868-2.378-.158-.984.781-1.335 2.55-.78 3.932.64 1.596 2.39 2.003 3.392.595.278-.391.419-.706.447-1.865.027-1.15-.416-2.085-.423-2.099M52.47 37.451c-.08-.14-.163-.277-.259-.405-.663-.896-1.483-.868-2.378-.158-.983.781-1.334 2.55-.78 3.932.64 1.596 2.391 2.003 3.393.595.277-.391.418-.705.446-1.865.028-1.15-.415-2.085-.422-2.099" fill="#33475C"/>
        <path d="M58.196 70.883s.805 2.427 1.758 2.975c4.341 2.444 8.734 4.797 12.99 7.389.326.197.764.299.883.854-1.085.818-2.362 1.304-3.654 1.702-4.881 1.5-9.85 2.579-14.923 3.117l-.016.02c-4.107.702-14.195.176-14.467.162h-.01l-.003-.001c-.311-.013-.622-.031-.932-.057-5.08-.42-10.157-.867-14.976-2.725-.427-.165-.857-.32-1.28-.495-.156-.064-.295-.169-.516-.298.182-.569.746-.633 1.147-.854 2.305-1.27 4.638-2.492 6.935-3.775 2.103-1.175 4.145-2.456 5.796-4.244 1.853-1.961 1.903-2.977 1.903-2.977.08-1.817.07-3.635-.311-5.563l-.183-.892c.6.356 1.205.714 1.823 1.056 1.424.788 2.917 1.384 4.588 1.145 4.488-.642 8.215-2.77 11.377-5.944.402-.404.636-.976.949-1.47l-.463-.43c-.573.421-1.175.808-1.715 1.269-2.604 2.218-5.41 4.017-8.809 4.824-1.86.442-3.503.163-5.123-.738-2.371-1.32-4.502-2.961-6.486-4.795-2.79-2.58-4.474-5.77-5.153-9.504-1.058-5.823-.814-11.647-.037-17.472.5-3.746 1.693-7.252 3.727-10.444 1.117-1.753 2.411-3.366 4.32-4.334 1.4-.711 2.631-.52 3.768.553 2.294 2.164 4.61 4.306 6.857 6.519 1.265 1.244 2.462 2.566 3.59 3.935.59.717.962 1.612 1.51 2.56-3.73-.31-5.167.277-5.34 2.112.683-.18 1.341-.355 2-.525 2.35-.605 4.726.435 5.708 2.628 1.356 3.029 2.61 6.104 3.934 9.148.157.363.475.657.985 1.338.202-.86.284-1.275.4-1.68.22-.781 1.2-1.56 1.9-1.461.86.121 1.315.767 1.412 1.528.098.78.054 1.608-.093 2.383-.34 1.799-1.285 3.302-2.558 4.593-1.216 1.234-1.843 2.674-2.166 4.21h-.002l-.006.037c-.102.49-.173.99-.221 1.496-.077.556-.16 1.21-.23 1.874l-.113 1.553c-.169 1.848-.323 3.372-.444 4.9-.125 1.599-.258 3.212-.03 4.798M27.46 47.334c.02.282.042.563-.057.885-1.95-2.686-3.654-5.465-3.85-8.914-.172-2.995-.017-5.974.672-8.891 1.18-4.99 2.83-9.794 5.793-14.065 1.275-1.837 2.927-3.031 5.101-3.517 2.908-.649 5.82-1.28 8.72-1.96 1.17-.274 2.341-.58 3.463-1 1.226-.462 2.453-.528 3.72-.37 11.323 1.41 20.36 11.022 21.106 22.44.21 3.227.004 6.418-.804 9.556-1.053 4.088-3.578 7.628-7.123 9.934.428-1.485.92-2.772 1.143-4.103.155-.93.125-1.973-.141-2.871-.602-2.036-2.357-2.612-4.186-1.523l-.669.402c-.18-.42-.343-.766-.478-1.123-1.856-4.895-4.115-9.583-7.18-13.847-.666-.928-1.407-1.818-2.211-2.628-2.87-2.887-5.784-5.73-8.675-8.595-.816-.81-1.624-1.094-2.881-.822-1.715.371-3.113 1.095-4.31 2.301-3.081 3.108-4.89 6.93-5.885 11.111-1.376 5.784-1.698 11.672-1.268 17.6m39.748-33.341c.923-1.344 2.505-1.692 3.933-.743 1.178.784 2.33 1.702 3.246 2.772 4.136 4.84 5.937 10.498 5.585 16.845-.113 2.027-.886 3.792-2.336 5.207-1.385 1.353-2.316 1.136-3.178-.567-.627-1.24-.691-2.513-.405-4.037 2.472-1.002 3.02-2.991 2.61-5.349-.481-2.768-1.12-5.505-2.661-7.923-.338-.53-.7-1.053-1.12-1.517-1.189-1.312-2.534-2.329-4.459-2.126-.798.085-1.411-.367-1.602-1.033-.127-.444.1-1.111.387-1.53m1.708 4.253c1.154-.189 1.814.391 2.318 1.032.775.982 1.613 1.992 2.066 3.133.817 2.056 1.462 4.195 1.993 6.345.27 1.092.114 2.274-1.421 3.03-.531-5.033-2.13-9.449-4.956-13.54m-8.748 41.714l.292-1.749c.046-.312.091-.623.131-.936.11-.865.526-1.454 1.247-1.939 1.33-.896 2.653-1.815 3.905-2.817 3.74-2.991 6.358-6.73 7.438-11.46.087-.376.233-.738.356-1.12 2.4 1.263 4.054.922 5.762-1.169 1.074-1.314 1.703-2.839 2.048-4.494.478-2.284.33-4.568-.012-6.845-.734-4.893-2.665-9.248-6.097-12.843-.976-1.023-2.137-1.938-3.365-2.635-2.204-1.25-4.216-.734-5.773 1.244-.206.261-.396.534-.631.853-.265-.183-.46-.289-.62-.433-3.782-3.411-8.252-5.325-13.251-6.067-.671-.1-1.385-.152-2.046-.038-1.86.322-3.717.683-5.55 1.137-2.78.688-5.508 1.612-8.312 2.174-4.099.823-6.941 3.093-8.718 6.809-.272.568-.612 1.114-.814 1.706-1.314 3.847-2.79 7.652-3.84 11.572-1.094 4.084-1.17 8.271.065 12.404.83 2.774 2.613 4.937 4.407 7.11.575.694 1.257 1.424 1.496 2.252 1.15 3.998 3.358 7.257 6.546 9.878l1.315 1.099.412 1.592c.36 1.68.776 3.345.801 5.085.016 1.05-.273 1.918-1.053 2.61-.729.647-1.423 1.35-2.222 1.896-4.122 2.815-8.61 4.993-12.865 7.452 0 0-3.709 2.071-4.612 3.4-.201.33-.396.662-.595.993.422.39.85.774 1.286 1.15.424-.677.87-1.344 1.329-2.006.853-1.23 1.697-1.325 3.13-.674 2.942 1.34 6.012 2.236 9.194 2.771 3.967.667 7.973.923 11.981 1.158 0 0 8.401.127 10.416-.058 3.146-.265 6.283-.586 9.372-1.249 4.427-.949 8.927-1.713 12.668-4.56.422-.32.728-.15 1.085.06 1.457.853 2.331 2.188 2.974 3.684.342.796.649 1.603.922 2.42.508-.395 1.006-.802 1.498-1.217-.536-1.544-1.248-3.021-2.254-4.369-.903-1.384-2.293-2.261-2.293-2.261-2.149-1.208-4.175-2.275-6.128-3.461-2.994-1.82-6.106-3.418-9.25-4.943-1.79-.87-2.514-2.12-2.46-4.08.084-3.043.316-6.067.685-9.086" fill="#33475C"/>
        <path d="M76.474 83.271c-.357-.209-.664-.38-1.085-.059-3.74 2.847-8.241 3.611-12.668 4.56-3.089.663-6.226.984-9.371 1.25-2.016.183-10.417.057-10.417.057-4.008-.235-8.014-.49-11.98-1.158-3.183-.535-6.253-1.432-9.195-2.77-1.433-.652-2.277-.558-3.13.673-.458.662-.905 1.33-1.329 2.006 8.718 7.513 20.068 12.056 32.479 12.056 11.534 0 22.151-3.925 30.592-10.51-.273-.817-.58-1.624-.922-2.42-.643-1.496-1.516-2.831-2.974-3.685" fill="#00A4BF"/>
    </g>
</svg>
